<?xml version="1.0" standalone="no"?>
<!DOCTYPE svg PUBLIC "-//W3C//DTD SVG 20010904//EN"
 "http://www.w3.org/TR/2001/REC-SVG-20010904/DTD/svg10.dtd">
<svg version="1.0" xmlns="http://www.w3.org/2000/svg"
 width="300.000000pt" height="300.000000pt" viewBox="0 0 300.000000 300.000000"
 preserveAspectRatio="xMidYMid meet">
<metadata>
Created by potrace 1.10, written by Peter Selinger 2001-2011
</metadata>
<g transform="translate(0.000000,300.000000) scale(0.100000,-0.100000)"
fill="#000000" stroke="none">
<path d="M1375 2270 c-4 -6 -1 -18 6 -26 8 -9 10 -34 6 -74 -4 -46 -10 -64
-28 -79 -19 -16 -26 -16 -48 -5 -13 7 -28 11 -33 8 -4 -3 -8 13 -8 34 0 26 5
42 15 46 18 7 20 57 3 74 -20 20 -55 13 -78 -15 -18 -24 -29 -28 -67 -27 -45
1 -45 1 -39 -29 11 -53 19 -223 12 -250 l-6 -26 -73 27 c-39 14 -77 33 -83 41
-12 16 -34 7 -34 -15 0 -8 10 -14 23 -14 34 0 158 -45 168 -61 5 -8 9 -32 9
-54 0 -32 -5 -42 -22 -50 -13 -6 -29 -22 -36 -37 -8 -18 -21 -28 -35 -28 -12
0 -39 -3 -59 -6 -35 -6 -38 -5 -38 17 0 42 12 69 30 69 9 0 25 9 35 20 15 16
17 26 9 48 -8 22 -16 28 -46 30 -29 2 -39 -1 -48 -18 -13 -24 -6 -70 10 -70
14 0 0 -82 -17 -99 -20 -20 0 -40 25 -24 30 18 121 27 138 12 13 -11 11 -16
-18 -46 -20 -21 -38 -31 -49 -28 -9 3 -27 -3 -40 -14 -21 -17 -22 -21 -11 -46
11 -23 17 -27 45 -22 37 5 77 -10 77 -30 0 -20 -41 -73 -52 -67 -12 8 -22 -26
-10 -38 9 -9 26 5 27 22 0 11 42 56 63 68 31 17 42 15 68 -13 13 -14 34 -25
49 -25 25 0 65 31 65 50 0 6 14 10 31 10 l31 0 -43 -52 c-24 -28 -50 -53 -59
-55 -12 -3 -16 -23 -17 -91 -3 -80 -5 -88 -28 -105 -32 -24 -33 -62 -1 -82 20
-13 29 -14 46 -5 28 15 86 5 94 -16 3 -9 12 -14 19 -11 9 3 11 28 9 94 l-4 90
30 22 c50 35 91 6 92 -64 0 -32 -4 -42 -22 -50 -17 -7 -24 -20 -26 -47 -3 -31
1 -40 24 -54 23 -16 29 -16 52 -3 40 23 50 45 32 77 -15 26 -14 31 17 95 27
56 37 67 57 67 34 0 58 36 50 76 -5 28 -1 35 25 55 18 13 30 30 29 39 -1 8 4
37 11 63 10 35 21 52 42 63 16 8 31 25 35 38 6 25 -10 66 -26 66 -14 0 -12 74
1 87 15 15 3 47 -15 40 -8 -3 -33 1 -55 10 -40 16 -41 17 -26 39 23 35 18 43
-8 11 l-22 -28 -42 17 c-53 21 -55 41 -5 49 20 4 44 9 53 11 9 2 24 -5 34 -16
23 -26 47 -25 70 0 15 16 17 26 9 48 -8 22 -15 27 -44 27 -27 0 -37 -5 -45
-22 -6 -15 -21 -25 -45 -29 -19 -3 -42 -8 -50 -10 -8 -2 -21 5 -27 16 -11 17
-7 24 38 62 27 23 57 43 65 44 9 1 18 5 21 8 10 10 -6 36 -23 36 -22 0 -74 38
-74 54 0 19 -33 46 -56 46 -29 0 -57 -24 -59 -50 -1 -16 -10 -26 -27 -31 -43
-11 -51 2 -46 75 4 51 3 66 -8 66 -7 0 -16 -5 -19 -10z m-102 -46 c11 -11 -5
-34 -24 -34 -18 0 -26 20 -12 33 8 9 28 9 36 1z m-48 -50 c30 -29 45 -84 24
-84 -7 0 -23 -10 -36 -22 -47 -44 -14 -138 48 -138 23 0 30 -5 35 -27 5 -19 3
-28 -6 -31 -8 -3 -25 -16 -38 -29 -22 -22 -26 -23 -45 -9 -36 25 -51 40 -64
62 -14 26 -21 270 -8 283 9 8 31 15 57 20 4 0 19 -11 33 -25z m334 -2 c12 -22
-3 -42 -30 -42 -23 0 -32 15 -24 40 8 25 41 26 54 2z m-26 -72 c9 0 27 10 38
21 21 21 24 21 48 6 14 -9 27 -22 28 -29 1 -7 -21 -31 -50 -54 -45 -36 -57
-40 -92 -37 -36 4 -44 10 -63 46 -28 54 -28 63 6 75 21 8 31 6 48 -9 11 -11
28 -19 37 -19z m-104 -47 c22 -45 22 -47 4 -80 -17 -32 -17 -35 0 -65 12 -22
15 -34 7 -42 -7 -7 -14 -6 -22 2 -7 7 -33 12 -59 12 -42 0 -47 3 -51 25 -4 18
1 29 18 40 27 17 43 80 25 98 -8 8 -5 17 11 34 31 33 41 29 67 -24z m-115 -2
c25 -27 17 -72 -15 -90 -24 -13 -29 -13 -53 2 -47 31 -27 107 28 107 13 0 31
-9 40 -19z m203 -67 c29 -8 36 -51 12 -75 -23 -23 -37 -24 -61 -2 -23 20 -23
52 0 69 20 15 20 16 49 8z m226 0 c9 -10 -4 -34 -18 -34 -17 0 -28 17 -20 30
7 11 28 13 38 4z m-133 -100 l40 -16 -19 -32 c-16 -25 -26 -30 -50 -28 -63 7
-80 -91 -18 -112 32 -12 77 15 77 45 0 15 14 26 55 45 31 13 59 24 63 24 4 0
6 -20 4 -45 -3 -34 -8 -45 -21 -45 -22 0 -41 -19 -41 -41 0 -10 -5 -21 -11
-25 -20 -12 -133 -11 -164 2 -29 12 -30 15 -27 66 3 44 -1 60 -23 92 -32 48
-28 62 17 58 23 -2 41 2 49 12 18 19 20 19 69 0z m-630 -50 c0 -17 -15 -25
-34 -18 -19 7 -21 25 -4 42 13 13 38 -2 38 -24z m232 -78 c-5 -63 10 -109 41
-131 17 -12 19 -17 9 -27 -7 -7 -12 -17 -12 -23 0 -5 7 -2 14 8 11 15 20 16
48 9 28 -7 33 -13 33 -38 0 -25 -4 -29 -32 -32 -24 -2 -33 1 -37 16 -17 52
-100 53 -119 2 -11 -29 -47 -43 -47 -19 0 6 -8 9 -19 6 -23 -6 -58 21 -63 48
-1 11 10 37 26 57 26 32 32 35 52 26 18 -8 29 -7 47 5 42 27 40 103 -3 114
-15 4 -20 14 -20 42 0 21 3 41 6 44 4 4 23 -7 44 -23 36 -28 37 -30 32 -84z
m192 93 c41 -15 68 -52 73 -103 6 -60 -22 -106 -81 -131 l-48 -19 -46 24 c-86
47 -102 138 -35 205 38 38 79 45 137 24z m312 -5 l39 -17 -60 -27 c-49 -22
-62 -24 -68 -13 -8 13 26 73 42 73 5 0 26 -7 47 -16z m-102 -72 c12 -20 -7
-52 -30 -52 -26 0 -40 20 -30 45 6 16 51 21 60 7z m-470 -18 c17 -6 21 -41 8
-59 -11 -16 -49 -16 -63 1 -9 11 -9 21 -1 39 12 25 27 30 56 19z m631 -74 c8
-25 -1 -40 -25 -40 -22 0 -30 19 -18 43 12 23 35 22 43 -3z m-258 -32 c38 -17
44 -28 27 -54 -10 -15 -21 -20 -35 -17 -27 8 -69 -16 -69 -39 0 -12 -7 -18
-24 -18 -42 0 -56 11 -56 41 0 23 5 29 20 29 30 0 78 27 90 50 13 24 11 23 47
8z m202 -19 c17 -11 17 -14 1 -65 -9 -29 -19 -56 -22 -59 -6 -7 -98 99 -98
113 0 10 22 15 83 20 9 1 26 -3 36 -9z m-46 -126 c6 -10 3 -13 -15 -9 -13 3
-39 7 -58 10 -29 5 -38 13 -48 39 -11 29 -10 34 9 50 21 17 22 16 63 -29 22
-26 45 -53 49 -61z m-413 7 c0 -15 -30 -31 -52 -28 -34 5 -38 55 -6 67 18 7
27 5 41 -11 9 -11 17 -24 17 -28z m264 28 c19 -27 5 -48 -31 -48 -31 0 -40 26
-18 50 23 25 30 25 49 -2z m-80 -44 c12 -32 -36 -84 -77 -84 -17 0 -39 -7 -49
-17 -20 -18 -24 -63 -7 -80 9 -9 1 -25 -29 -63 -24 -31 -43 -46 -47 -40 -12
20 6 141 27 179 24 44 76 100 103 111 33 14 72 11 79 -6z m189 -9 c52 -7 54
-10 31 -43 -12 -18 -19 -20 -35 -12 -13 7 -25 7 -38 1 -15 -9 -22 -6 -35 14
-18 28 -11 58 13 51 9 -2 37 -7 64 -11z m-91 -41 c19 -24 15 -86 -7 -104 -44
-36 -115 -27 -115 14 0 14 -5 28 -10 31 -6 4 1 21 19 43 23 30 36 37 62 37 22
0 40 -7 51 -21z m94 -61 c4 -21 -8 -36 -33 -39 -20 -3 -31 19 -22 44 12 30 51
27 55 -5z m-262 1 c23 -9 21 -60 -3 -67 -11 -2 -24 0 -30 6 -15 15 -14 54 2
60 6 3 13 6 14 6 1 1 8 -2 17 -5z m199 -54 c4 -14 -58 -140 -70 -140 -14 0
-19 86 -5 106 19 28 70 51 75 34z m-223 -115 c0 -41 -5 -77 -10 -80 -6 -4 -23
-4 -39 0 -22 5 -30 13 -35 36 -5 24 1 39 31 79 20 27 40 47 45 44 4 -3 8 -38
8 -79z m-114 -60 c-5 -14 -9 -15 -21 -5 -12 10 -13 16 -4 27 15 18 34 1 25
-22z m274 0 c18 -21 3 -55 -25 -55 -15 0 -25 7 -28 22 -11 39 28 64 53 33z"/>
<path d="M1282 1796 c-43 -48 -43 -86 2 -133 23 -24 39 -34 50 -30 14 6 16 21
14 99 -3 108 -15 120 -66 64z m58 -7 c0 -27 -3 -30 -23 -26 -12 4 -29 2 -37
-3 -10 -7 -11 -10 -2 -10 6 0 12 -7 12 -15 0 -8 5 -15 10 -15 14 0 13 13 -2
28 -9 9 -9 12 0 12 7 0 12 -5 12 -11 0 -6 6 -9 14 -6 12 5 15 -6 15 -49 0 -46
-3 -55 -17 -52 -9 2 -16 12 -15 22 0 10 -4 15 -12 12 -16 -6 -37 33 -32 59 8
39 18 54 34 48 11 -4 14 -2 9 5 -9 15 1 32 20 32 9 0 14 -11 14 -31z"/>
<path d="M1385 1782 c2 -16 -2 -22 -11 -18 -8 3 -14 1 -14 -3 0 -5 7 -11 15
-15 8 -3 15 -1 15 5 0 6 5 7 10 4 6 -4 7 -11 4 -17 -4 -5 -6 -30 -6 -54 1 -35
-2 -44 -16 -44 -13 0 -14 2 -4 9 8 5 12 16 10 25 -2 12 -6 9 -15 -10 -16 -34
10 -45 38 -15 11 11 16 21 11 21 -5 0 -9 17 -9 38 0 20 2 27 4 15 2 -13 10
-23 16 -23 7 0 6 -4 -3 -10 -8 -5 -10 -10 -4 -10 18 0 34 23 34 51 0 33 -19
50 -47 43 -15 -4 -23 -1 -26 13 -2 10 -3 8 -2 -5z m62 -50 c2 -18 2 -32 -1
-32 -8 0 -34 59 -28 65 12 12 26 -3 29 -33z"/>
<path d="M1926 2124 c-28 -28 -20 -86 19 -137 37 -49 48 -107 20 -107 -10 0
-15 10 -15 30 0 23 -4 30 -20 30 -16 0 -20 -7 -20 -33 0 -58 58 -88 93 -49 29
31 21 86 -19 142 -25 34 -34 58 -32 77 4 38 22 35 26 -4 2 -25 8 -33 23 -33
15 0 19 7 19 31 0 46 -16 69 -50 69 -16 0 -36 -7 -44 -16z"/>
<path d="M990 2071 c-5 -11 -10 -28 -10 -39 0 -27 35 -56 59 -49 16 4 26 -4
42 -29 28 -46 37 -44 9 2 -15 26 -18 40 -11 47 16 16 13 53 -5 71 -22 23 -71
20 -84 -3z m70 -38 c0 -23 -31 -28 -46 -8 -12 15 -11 20 4 31 19 14 42 2 42
-23z"/>
<path d="M1025 1785 c17 -14 35 -25 40 -25 6 1 -3 12 -20 25 -16 14 -34 25
-40 25 -5 -1 4 -12 20 -25z"/>
<path d="M1930 1770 c-18 -18 -20 -33 -20 -134 0 -107 1 -116 22 -130 12 -9
30 -16 39 -16 23 0 49 33 49 62 0 21 -4 25 -20 21 -11 -3 -20 -14 -20 -24 0
-11 -7 -19 -15 -19 -13 0 -15 16 -13 107 2 74 7 108 16 111 7 2 12 -5 12 -17
0 -14 6 -21 20 -21 28 0 27 44 -2 64 -30 21 -44 20 -68 -4z"/>
<path d="M1935 1428 c-2 -7 -11 -65 -20 -128 -9 -63 -19 -125 -22 -137 -4 -18
-1 -23 15 -23 21 0 32 24 32 71 0 32 6 38 29 32 14 -3 20 -18 25 -54 5 -40 10
-49 26 -49 24 0 25 -12 -5 150 -14 74 -25 138 -25 143 0 12 -50 8 -55 -5z m44
-125 c1 -15 -5 -23 -15 -23 -14 0 -15 7 -10 38 3 20 6 44 7 52 2 19 16 -37 18
-67z"/>
<path d="M1030 1394 c0 -6 9 -19 20 -29 14 -12 18 -25 14 -41 -9 -36 20 -74
56 -74 34 0 70 30 70 59 0 48 -71 84 -103 52 -8 -8 -17 -4 -34 16 -12 16 -22
23 -23 17z m114 -57 c28 -21 17 -52 -19 -52 -24 0 -31 5 -33 24 -2 13 2 28 10
32 18 12 21 11 42 -4z"/>
<path d="M1950 940 c0 -143 1 -150 20 -150 19 0 20 7 20 150 0 143 -1 150 -20
150 -19 0 -20 -7 -20 -150z"/>
<path d="M1193 1022 c-11 -26 23 -39 142 -56 156 -21 157 -21 153 6 -3 21 -13
24 -147 43 -120 18 -144 19 -148 7z"/>
<path d="M1193 955 c-10 -29 14 -39 139 -56 163 -24 160 -24 156 4 -3 20 -12
23 -121 39 -65 9 -129 19 -143 22 -17 5 -26 2 -31 -9z"/>
<path d="M1194 885 c-4 -9 -2 -21 3 -26 7 -7 249 -49 286 -49 4 0 7 11 7 23 0
23 -6 25 -122 41 -68 9 -133 20 -145 23 -16 3 -25 0 -29 -12z"/>
<path d="M1236 804 c-10 -26 1 -31 93 -43 111 -15 111 -15 111 13 0 21 -5 24
-67 30 -38 4 -82 9 -99 12 -24 4 -33 2 -38 -12z"/>
</g>
</svg>
