<svg version="1.1" id="Layer_1" xmlns="http://www.w3.org/2000/svg" xmlns:xlink="http://www.w3.org/1999/xlink" x="0px" y="0px"
	 width="100%" viewBox="0 0 1024 1024" enable-background="new 0 0 1024 1024" xml:space="preserve">
<path fill="#000000" opacity="1.000000" stroke="none" 
	d="
M491.434143,651.442505 
	C482.544952,637.012207 486.255676,624.187622 501.239319,617.040527 
	C503.683624,615.874573 504.870148,614.388184 504.867157,611.730591 
	C504.859650,605.065674 505.692841,598.287964 504.732605,591.770142 
	C503.919189,586.248779 500.739838,581.218872 495.243530,578.539429 
	C493.161011,577.524231 490.827911,577.036682 488.673065,576.152466 
	C486.233307,575.151428 484.382690,575.264954 482.616791,577.638062 
	C479.634521,581.645630 475.467133,584.136536 470.613495,585.233459 
	C467.849365,585.858093 466.610748,587.510742 466.478760,590.093567 
	C465.739655,604.554077 465.084015,619.018921 464.334076,633.478882 
	C464.223785,635.604736 465.278778,636.813110 466.799255,638.027954 
	C469.978271,640.567871 471.209778,643.817383 469.677826,647.777588 
	C468.407288,651.062073 465.959930,652.952698 462.432770,652.926331 
	C458.339203,652.895813 455.362244,650.820862 454.193787,646.880859 
	C453.471954,644.447021 452.071686,643.354736 449.763214,642.803040 
	C447.663727,642.301270 445.608246,641.576721 443.578949,640.826904 
	C437.506104,638.583008 432.503815,637.114868 426.194580,642.585205 
	C418.186157,649.528748 405.845123,645.081482 401.045044,635.265137 
	C396.629883,626.235962 400.918762,614.542175 410.496826,611.307556 
	C415.431580,609.641113 416.528290,606.982178 416.823395,602.204956 
	C417.529938,590.767090 418.864380,579.361267 420.204742,567.973022 
	C420.665863,564.055115 421.069031,560.530579 418.007141,557.297974 
	C416.163391,555.351440 416.102020,552.584595 417.585022,550.296204 
	C419.113007,547.938416 420.888885,545.391846 424.269165,545.952698 
	C426.142731,546.263489 427.431946,545.887085 428.678650,544.508850 
	C437.842072,534.378540 447.055267,524.293274 456.213501,514.158325 
	C456.839630,513.465454 457.147705,512.485229 458.153534,510.617859 
	C451.943726,509.913269 446.390381,509.651062 441.004852,510.984589 
	C438.359985,511.639526 438.500122,515.140930 437.727753,517.356628 
	C432.220886,533.153259 410.221863,534.647156 401.357971,526.701294 
	C398.166962,523.840820 395.822113,520.568237 394.089813,516.707214 
	C391.652161,511.274170 385.113007,510.357483 381.516266,515.000122 
	C379.186462,518.007385 376.506531,519.938538 372.579376,519.109375 
	C370.632874,518.698364 369.469696,519.455566 368.307831,520.860657 
	C364.805573,525.096069 361.173065,529.223633 357.662567,533.452332 
	C353.393127,538.595276 353.593384,546.142639 358.045593,551.255981 
	C358.701355,552.009155 359.335663,552.781433 359.966034,553.556152 
	C366.080566,561.071045 366.079742,561.071777 374.893066,556.748535 
	C383.979553,552.291321 395.973114,554.812866 402.218262,562.493408 
	C409.117554,570.978394 409.333649,582.843323 402.749603,591.661682 
	C396.688660,599.779419 385.411896,602.672729 375.806122,598.574646 
	C366.059357,594.416382 359.318329,583.741028 362.494385,573.923950 
	C366.338165,562.043030 356.981415,557.313110 352.015228,550.090393 
	C351.095947,548.753418 349.202515,549.466858 347.755737,549.226746 
	C343.656311,548.546265 340.918762,546.194214 340.900360,541.948425 
	C340.881836,537.679199 343.511963,534.920776 347.751587,534.890808 
	C351.037842,534.867554 352.945770,533.472229 354.805634,531.123230 
	C357.491882,527.730591 360.462677,524.565063 363.237976,521.240845 
	C368.694153,514.705322 367.763916,509.512787 360.412811,505.099670 
	C358.984375,504.242126 357.483063,503.480499 356.152466,502.490387 
	C352.653290,499.886719 349.671753,499.264313 345.497620,502.122223 
	C339.117004,506.490753 331.087769,504.534180 325.781494,498.417053 
	C320.940186,492.835938 320.766113,484.539490 325.364990,478.570190 
	C329.818268,472.789856 338.116577,470.612488 344.583038,474.073517 
	C347.595825,475.686066 349.242676,475.272308 351.280426,472.754211 
	C355.050323,468.095551 359.067169,463.631165 363.092590,459.186798 
	C365.659210,456.353119 366.147095,453.819611 363.875061,450.315613 
	C359.493134,443.557800 359.726013,443.523712 351.266785,444.889221 
	C343.067963,446.212708 334.828003,447.280762 326.608154,448.475159 
	C323.619629,448.909393 320.939667,449.456116 319.319641,452.740173 
	C317.953400,455.509796 315.015961,456.251678 311.954407,455.482574 
	C309.098816,454.765198 307.297516,452.877258 306.796234,450.005310 
	C306.271484,446.998657 306.919250,444.052246 309.826813,442.701599 
	C312.642334,441.393677 313.567261,439.547058 313.932617,436.615601 
	C314.651245,430.849396 315.615479,425.088989 316.930267,419.431244 
	C317.714783,416.055603 316.931366,414.134247 314.243347,411.834229 
	C305.567261,404.410339 305.024750,391.037170 312.664429,383.344025 
	C320.906342,375.044495 334.011200,374.842072 341.654449,383.250763 
	C346.408569,388.480957 348.085419,394.960693 346.114899,401.819397 
	C345.102844,405.341980 345.884491,407.440918 348.736420,409.392578 
	C353.409363,412.590424 357.960083,415.967560 362.544830,419.293243 
	C364.486603,420.701813 366.420685,421.230286 368.432220,419.473938 
	C371.532776,416.766693 375.283600,415.362488 379.164154,414.356293 
	C381.791382,413.675049 383.107300,412.367096 383.188477,409.541748 
	C383.346283,404.050354 383.740265,398.565674 384.040222,393.078430 
	C384.165802,390.780426 383.534882,388.852325 381.639709,387.353607 
	C380.743927,386.645203 379.509796,385.685181 379.421021,384.745483 
	C378.821960,378.401947 373.585510,377.867462 369.191956,376.246033 
	C357.005615,371.748718 344.799896,367.303192 332.641083,362.732758 
	C330.035492,361.753326 327.932892,361.261658 325.231445,363.065186 
	C321.713531,365.413849 317.365784,363.791809 315.474121,360.155762 
	C313.577972,356.511078 315.014404,352.069061 318.640442,350.364410 
	C322.369354,348.611328 326.572998,349.941925 328.134247,354.073151 
	C329.296356,357.148163 331.304718,358.436646 334.091034,359.442963 
	C347.089691,364.137451 360.044800,368.952301 373.034760,373.671112 
	C375.002045,374.385773 376.976471,375.333984 379.147705,375.130890 
	C379.915344,372.887451 378.353333,371.759583 377.520294,370.454315 
	C373.935425,364.837433 370.040924,359.408142 366.662537,353.672943 
	C364.430328,349.883545 361.983612,348.484863 357.383911,349.282745 
	C347.246368,351.041168 339.293274,346.313477 335.338501,337.019012 
	C332.186890,329.612030 334.196533,320.709503 340.290955,315.080017 
	C346.651733,309.204498 355.843292,307.905701 363.465149,311.805328 
	C370.856567,315.587036 375.182892,323.562622 374.109924,331.614655 
	C373.505615,336.149872 372.131165,340.414124 368.785675,343.741852 
	C367.366791,345.153229 366.359802,346.437897 367.745667,348.468567 
	C372.794800,355.867126 377.162231,363.735840 383.436401,371.533417 
	C383.436401,363.571472 383.670227,356.548462 383.391602,349.545868 
	C382.624054,330.255859 381.598541,310.976196 380.783905,291.687866 
	C380.634491,288.149323 380.610718,284.984558 377.302826,282.433746 
	C374.779510,280.487976 374.159088,277.188843 376.048309,274.285187 
	C377.943268,271.372742 381.538239,269.392487 384.197906,271.363434 
	C390.122711,275.753998 395.942902,273.033875 401.837067,272.516510 
	C406.831268,272.078094 410.504272,271.010437 411.603699,264.517273 
	C412.856995,257.115448 421.430939,251.792053 428.888611,251.815201 
	C436.399200,251.838531 443.696014,257.042023 446.116821,264.100891 
	C448.772736,271.845337 446.435699,279.545349 440.300262,284.869019 
	C437.978394,286.883667 433.451599,286.964325 433.295502,290.581787 
	C433.075104,295.688324 433.909851,300.858307 434.519562,305.974243 
	C434.776276,308.128296 436.936279,308.075165 438.502228,308.256042 
	C444.950958,309.000977 450.825684,311.135773 455.799438,315.346375 
	C457.665222,316.925903 459.104004,316.477448 460.592651,315.069427 
	C465.084564,310.820892 469.074585,306.682800 472.036285,300.669800 
	C478.247223,288.060211 475.059753,275.528046 474.902344,262.890717 
	C474.876312,260.800476 473.467255,259.755920 472.077362,258.484100 
	C468.609436,255.310608 468.418915,250.873871 471.380035,247.901428 
	C474.163788,245.107040 478.458069,245.005188 481.273834,247.666763 
	C484.066986,250.306931 484.393402,255.090363 481.224548,257.944885 
	C478.397614,260.491364 478.225922,263.099335 478.777649,266.415405 
	C480.039185,273.997894 478.615784,281.728577 479.930206,289.337677 
	C481.260651,297.039429 482.807648,298.135681 490.216187,296.119141 
	C491.501709,295.769257 492.784332,295.408386 494.065704,295.043427 
	C502.032074,292.774475 502.031830,292.773621 502.839203,284.712677 
	C503.880463,274.316010 513.171082,265.994446 523.999023,265.759796 
	C534.643188,265.529114 543.905029,273.216888 545.100220,283.851593 
	C545.479370,287.225281 546.711121,289.355133 549.392944,291.142426 
	C552.716797,293.357605 555.949646,295.727905 559.078491,298.211700 
	C562.176941,300.671295 565.033081,302.493042 569.444641,300.900208 
	C572.643799,299.745117 575.641541,301.559692 577.398499,304.641449 
	C579.116211,307.654480 579.143372,310.703918 576.989258,313.542389 
	C574.904480,316.289581 572.066711,317.890381 568.715454,316.662933 
	C565.829529,315.605957 564.166687,316.619049 562.130249,318.421936 
	C553.402771,326.148590 544.572571,333.761505 535.679688,341.297668 
	C533.009827,343.560120 531.728577,345.655792 534.439026,348.745270 
	C535.289490,349.714661 536.012756,351.031677 536.223267,352.285461 
	C537.120483,357.629333 540.294250,358.648346 545.117493,357.720459 
	C552.301819,356.338409 559.529602,355.125580 566.783691,354.187195 
	C570.358521,353.724792 571.824341,352.120331 572.516663,348.632202 
	C575.285278,334.683990 589.615112,328.837280 601.337219,336.694244 
	C608.352051,341.396057 610.916931,350.750122 607.414429,358.858246 
	C603.866455,367.071625 595.503479,371.696259 587.206848,369.499512 
	C583.502075,368.518585 581.311523,369.245880 579.489014,372.563812 
	C577.729675,375.766663 575.603394,378.777557 573.514404,381.786774 
	C571.704712,384.393677 572.331360,386.011292 575.191589,387.121185 
	C582.486633,389.951996 589.771667,392.809357 597.032166,395.727264 
	C598.994629,396.515991 600.495605,395.761200 602.179077,394.892670 
	C606.033142,392.904388 609.396667,393.871613 611.777100,397.361481 
	C614.144592,400.832336 613.182800,404.292786 610.189758,406.714844 
	C607.079834,409.231506 606.432373,412.343231 606.274597,415.955750 
	C606.064270,420.773651 605.678894,425.585297 605.295654,430.393799 
	C605.046509,433.520081 606.038574,435.529053 609.016663,437.206268 
	C617.338928,441.893341 620.953613,450.507538 619.043884,459.765930 
	C617.363464,467.912628 610.127808,474.314789 601.080505,475.297577 
	C598.504639,475.577362 597.176819,476.702179 596.418823,478.996368 
	C593.075928,489.113617 589.728943,499.229797 586.305298,509.319855 
	C585.607666,511.375916 585.933350,512.964355 586.988953,514.905762 
	C590.042358,520.521362 587.592773,525.299133 581.229187,526.087769 
	C578.791077,526.390015 577.205994,527.318481 575.960876,529.252380 
	C575.330322,530.231628 574.668274,531.202209 573.919983,532.092163 
	C569.430481,537.431213 566.993164,542.168152 569.856506,550.223328 
	C574.857971,564.292969 562.428101,579.259033 546.413574,576.539246 
	C543.562683,576.055115 541.668762,576.776611 540.424316,579.565857 
	C534.791992,592.189331 529.100281,604.787231 523.299072,617.333862 
	C522.243469,619.617004 523.029724,620.960083 524.468079,622.604675 
	C530.330566,629.308044 532.062317,637.072449 528.946289,645.396912 
	C525.824768,653.735962 519.368591,658.513550 510.567871,659.639160 
	C502.879791,660.622314 496.560120,657.721191 491.434143,651.442505 
M441.826691,369.010773 
	C440.139771,367.790985 438.255981,368.459839 436.494385,368.589294 
	C423.014008,369.580200 410.073151,360.200226 406.278015,346.590240 
	C402.528503,333.143890 408.847076,317.974487 420.740509,311.869141 
	C431.158203,306.521362 431.159882,306.521118 429.466278,294.872437 
	C429.370544,294.214050 429.132690,293.570038 429.091370,292.911133 
	C428.933655,290.396942 427.673340,289.166046 425.158142,288.588501 
	C420.676727,287.559509 416.032959,285.733398 414.156830,281.473969 
	C411.198273,274.757080 406.524628,274.666504 400.752563,276.297394 
	C399.476379,276.657990 398.140594,276.809601 396.830597,277.048218 
	C387.180115,278.806183 383.890625,283.257263 384.372467,293.179932 
	C385.446075,315.290436 387.310547,337.425812 386.915192,359.516388 
	C386.730927,369.812683 395.956940,375.651306 395.481415,385.252838 
	C395.461304,385.658844 396.419403,386.124512 396.936584,386.544159 
	C402.757935,391.267426 408.716003,395.833954 414.356842,400.763550 
	C417.903320,403.862823 420.275848,403.331757 422.781525,399.615845 
	C425.905426,394.983063 430.432617,391.778381 434.916260,388.579407 
	C438.229340,386.215576 443.890778,386.291168 444.981812,382.076691 
	C446.022552,378.056549 443.489563,373.711853 441.826691,369.010773 
M514.070312,420.791229 
	C516.365356,430.955750 515.947327,441.019836 512.202515,450.736176 
	C510.884155,454.156891 511.954742,455.739960 514.805115,456.959381 
	C520.007751,459.185089 525.131042,461.656158 530.477417,463.462494 
	C533.421692,464.457214 535.735168,465.217346 535.798523,468.856232 
	C535.822266,470.219299 536.762878,471.405151 538.323914,471.532257 
	C540.037170,471.671722 540.613770,470.411469 540.874695,469.025146 
	C541.562622,465.370941 543.774109,465.039154 546.814026,466.100952 
	C547.706909,466.412842 548.799377,466.531647 549.715942,466.338379 
	C558.172913,464.555145 566.597107,462.614166 575.063232,460.876953 
	C577.960144,460.282501 578.640869,458.629150 578.755371,455.928711 
	C579.263550,443.936829 584.833252,437.348267 596.714172,434.894379 
	C599.926941,434.230865 601.353088,432.560303 601.589539,429.573944 
	C602.049072,423.770203 602.533142,417.964874 602.804199,412.150757 
	C603.055481,406.760223 601.074280,405.416565 596.188354,407.620880 
	C587.080383,411.730011 578.125610,416.197296 568.906189,420.032776 
	C564.372314,421.919037 562.267578,424.217834 562.073364,429.486237 
	C561.615173,441.914459 549.800049,450.853546 537.350952,448.938385 
	C525.174622,447.065216 517.028198,435.381775 519.498230,423.334381 
	C522.262024,409.853851 533.945435,402.709503 547.307983,406.296326 
	C549.107666,406.779388 551.046021,408.333618 552.662598,405.908966 
	C556.607422,399.992401 560.553833,394.076935 564.830811,387.664398 
	C555.358643,383.076538 546.098145,379.956879 536.962952,376.553833 
	C535.298096,375.933594 534.271973,377.431244 533.241638,378.534180 
	C530.743164,381.208771 528.351624,383.994415 525.035645,385.762512 
	C518.068909,389.477203 510.877014,390.406433 503.335815,387.727722 
	C500.874420,386.853424 498.785095,387.247528 497.210968,389.558380 
	C495.426270,392.178253 497.383118,393.557831 498.975342,394.971527 
	C506.598083,401.739655 510.797058,410.518707 514.070312,420.791229 
M432.502472,477.600586 
	C429.007660,472.741089 423.881744,469.389282 420.481750,464.414215 
	C409.161133,447.849030 407.588837,430.267853 414.869049,411.764526 
	C415.777863,409.454590 416.600372,407.541382 414.169708,405.606079 
	C407.529419,400.318939 401.065308,394.808197 394.367188,389.597107 
	C391.115814,387.067596 388.642548,388.220703 388.271698,392.342743 
	C387.780518,397.801788 387.209808,403.252136 387.260223,408.769257 
	C387.294678,412.542236 388.551544,414.165710 392.303040,415.281342 
	C405.395844,419.174713 412.102417,435.576416 405.974304,447.826050 
	C399.934631,459.899017 387.345123,464.816284 374.831238,459.630951 
	C371.177307,458.116882 368.693115,458.333618 366.186951,461.498505 
	C363.091766,465.407288 359.744720,469.131958 356.319855,472.759918 
	C352.996704,476.280182 350.281616,479.700836 353.250000,484.860443 
	C354.029053,486.214661 354.164062,488.082550 353.648926,489.747803 
	C352.229187,494.337341 353.807404,497.406677 358.169769,499.320251 
	C359.984924,500.116486 361.672333,501.246704 363.323273,502.364685 
	C365.950226,504.143585 368.389099,504.887634 371.621124,503.316101 
	C375.005096,501.670685 378.426910,503.074615 380.492035,505.951080 
	C382.855347,509.243042 385.803925,508.865875 388.931488,508.355347 
	C392.091309,507.839600 392.275116,505.164307 392.841278,502.693878 
	C395.821014,489.691742 409.290619,481.049927 421.761261,484.859650 
	C426.495850,486.306061 428.822571,485.352875 430.670013,481.280365 
	C431.147858,480.227051 431.827576,479.265320 432.502472,477.600586 
M483.124390,537.646362 
	C486.258392,533.969177 489.421936,530.316711 492.518890,526.608643 
	C496.359497,522.010132 493.782166,510.620605 487.994202,509.865936 
	C481.913757,509.073120 474.701233,506.292816 469.561462,513.024292 
	C468.628387,514.246277 467.043152,515.260071 465.661407,514.967712 
	C460.506866,513.876953 458.185333,517.617432 455.408112,520.575623 
	C452.216919,523.974792 448.778595,527.224060 446.091675,530.997131 
	C440.772949,538.465698 431.990723,543.175171 429.311218,552.815735 
	C428.388275,556.136475 427.735321,560.009399 424.443207,562.302917 
	C424.350830,562.367310 424.383942,562.619446 424.368164,562.784973 
	C423.011261,577.019714 421.670319,591.256042 420.286865,605.488159 
	C420.004883,608.389465 421.058228,610.034607 423.921600,611.113098 
	C426.929657,612.246155 428.659271,611.087769 430.330627,608.947693 
	C436.483704,601.068970 442.605042,593.164673 448.844330,585.354614 
	C450.833862,582.864136 450.846130,581.053467 448.674042,578.441650 
	C441.638336,569.981689 441.075653,560.122620 446.642578,551.104248 
	C451.508606,543.221313 461.629974,538.953003 471.609406,542.242310 
	C477.312103,544.122009 479.953522,542.184204 483.124390,537.646362 
M559.418884,315.883057 
	C562.713318,312.653534 564.028687,306.692749 561.374817,304.521240 
	C556.419189,300.466217 551.036804,296.932587 545.639526,293.043304 
	C544.892212,294.043823 544.557983,294.416168 544.306946,294.837982 
	C534.134094,311.933044 519.632690,313.625275 506.440338,299.167725 
	C504.761810,297.328247 502.944611,296.668884 500.667175,297.246307 
	C496.957031,298.187012 493.221283,299.082458 489.601776,300.308289 
	C486.292114,301.429230 483.817566,307.048157 485.399628,310.137878 
	C489.726135,318.587616 494.296326,326.912689 498.781128,335.281158 
	C499.850861,337.277222 501.379211,338.290436 503.707581,337.412689 
	C511.514496,334.469574 518.868103,336.328827 525.812866,339.987061 
	C528.553223,341.430573 530.200439,341.101990 532.377258,339.191528 
	C541.142029,331.499359 550.043091,323.962494 559.418884,315.883057 
M491.154724,329.282928 
	C488.102020,323.549377 485.181732,317.739868 481.951721,312.108002 
	C479.657532,308.107788 474.862732,307.458679 471.447174,310.439606 
	C469.314270,312.301086 467.413971,314.440948 465.208221,316.204346 
	C461.757202,318.963287 461.261414,321.589478 463.018097,326.022827 
	C468.888306,340.837585 465.308563,355.914581 451.611511,363.985016 
	C446.492310,367.001312 445.671234,369.882904 447.545532,374.708832 
	C448.087189,376.103455 448.562927,377.533661 448.935516,378.981842 
	C449.659943,381.797791 451.145538,382.722900 454.073914,381.791901 
	C456.730347,380.947327 459.383667,380.160706 462.347595,380.250275 
	C471.702667,380.532990 480.394592,382.963684 488.581482,387.383057 
	C490.417419,388.374054 492.147308,389.333588 493.782593,386.994171 
	C495.196686,384.971283 494.771790,383.269257 493.221008,381.618073 
	C492.878937,381.253876 492.541260,380.883362 492.228394,380.494171 
	C482.994354,369.006531 483.197113,355.025085 493.075256,344.115387 
	C495.732971,341.180115 496.382446,338.575348 494.341034,335.215607 
	C493.304962,333.510529 492.465332,331.686127 491.154724,329.282928 
M526.836853,531.649231 
	C524.683289,527.357422 521.787292,525.772156 516.814758,527.612000 
	C511.947266,529.412964 506.890991,528.256470 502.318817,525.962463 
	C500.173767,524.886230 498.706726,524.798035 497.147949,526.742798 
	C492.468201,532.581421 487.734131,538.376953 482.973816,544.150208 
	C481.480469,545.961243 481.363495,547.612122 482.845825,549.511963 
	C486.631989,554.364624 487.527985,559.988037 487.313538,565.995483 
	C487.108032,571.753418 496.571960,577.849365 501.904480,575.296265 
	C504.656006,573.978882 507.223999,573.336121 509.996460,574.535156 
	C511.771240,575.302673 513.180664,574.895691 514.676514,573.975830 
	C518.644836,571.535339 522.604858,569.077698 526.639038,566.749512 
	C528.835449,565.481934 529.578552,564.048035 528.725037,561.453979 
	C526.799683,555.602478 527.578735,549.754761 530.753052,544.646790 
	C532.952271,541.108032 532.431091,538.592285 529.948059,535.816833 
	C528.953796,534.705627 528.153259,533.421082 526.836853,531.649231 
M465.498260,486.609131 
	C463.910889,489.498810 465.529694,492.469543 465.276489,495.393402 
	C464.916626,499.549194 466.824768,502.137360 470.464996,504.136444 
	C475.463257,506.881348 480.449493,505.369720 485.492767,504.946228 
	C488.395935,504.702423 489.751068,503.132477 490.567871,500.366669 
	C494.174835,488.152802 505.468292,480.660706 517.464478,484.323120 
	C524.313354,486.414032 526.474304,483.113434 529.381775,479.075714 
	C533.319763,473.606842 532.011475,468.796448 525.856445,466.002258 
	C522.072632,464.284546 518.170349,462.807678 514.474182,460.922699 
	C510.430878,458.860687 507.713440,459.747192 505.426849,463.644012 
	C501.360504,470.573792 495.205078,475.299194 488.347900,479.289764 
	C481.441925,483.308746 473.722992,484.511261 465.498260,486.609131 
M555.527710,485.988922 
	C562.122070,493.706787 568.696045,501.442261 575.319153,509.135406 
	C578.846680,513.232849 581.307190,512.787842 583.024048,507.704224 
	C586.163513,498.408508 589.222107,489.085358 592.278137,479.761719 
	C592.637451,478.665405 592.930908,477.498322 592.959656,476.356628 
	C592.988281,475.221130 578.714417,464.186768 577.571533,464.421753 
	C568.455261,466.296021 559.318115,468.085663 550.254150,470.189117 
	C546.059937,471.162415 545.322693,473.770233 547.968262,477.065948 
	C550.259277,479.919952 552.698181,482.655182 555.527710,485.988922 
M434.735413,632.227661 
	C434.651642,633.110474 434.805908,634.005005 435.668732,634.345947 
	C441.384735,636.604431 447.192047,638.978088 453.255829,639.574158 
	C456.502777,639.893433 460.353088,637.693848 460.605835,633.624573 
	C461.521362,618.884033 462.041016,604.119141 462.765564,589.366211 
	C462.898834,586.652466 461.490021,585.697083 459.110809,584.938416 
	C456.708069,584.172241 455.032288,583.679199 453.132202,586.167969 
	C446.381531,595.010376 439.387939,603.668396 432.420807,612.343567 
	C430.990295,614.124817 430.624786,615.626953 432.034821,617.670410 
	C434.901367,621.824463 435.573700,626.536438 434.735413,632.227661 
M318.703644,430.116455 
	C318.239136,432.900116 317.598694,435.668060 317.348145,438.470825 
	C316.879456,443.713470 319.276001,445.797791 324.436462,445.036743 
	C332.496216,443.848114 340.549347,442.583252 348.638794,441.637177 
	C355.467957,440.838470 361.745239,439.764709 361.263977,430.676880 
	C361.239655,430.216949 361.514343,429.701385 361.758362,429.273590 
	C363.288605,426.590973 362.477905,424.550598 360.153534,422.795410 
	C355.235321,419.081635 350.344391,415.331329 345.467987,411.562714 
	C343.608459,410.125610 341.973145,410.120422 340.116058,411.705719 
	C337.286835,414.120850 334.016663,415.789307 330.270416,416.255859 
	C321.275146,417.376160 321.270294,417.351868 319.469635,426.341675 
	C319.273346,427.321655 319.114105,428.309082 318.703644,430.116455 
M545.333923,511.875641 
	C554.894775,513.120544 564.372131,515.161621 573.764526,515.578430 
	C574.513489,513.973816 574.012573,513.253906 573.485535,512.639282 
	C563.973022,501.545593 554.503601,490.413696 544.872070,479.424042 
	C542.151123,476.319366 535.786194,476.924255 533.250671,480.199860 
	C531.827576,482.038239 530.503174,483.952972 529.081665,485.792603 
	C527.568054,487.751465 527.389099,489.421051 529.197571,491.503479 
	C532.438171,495.234955 534.524231,499.722961 534.237183,504.696930 
	C533.977234,509.202820 535.714050,511.127869 540.013733,511.281158 
	C541.499268,511.334076 542.977356,511.596283 545.333923,511.875641 
M509.506927,614.544739 
	C512.935547,615.532532 517.200012,619.941772 519.731201,615.037170 
	C526.124512,602.648560 531.536011,589.752930 537.321411,577.051514 
	C538.354309,574.783813 537.217468,573.220215 535.448608,571.963318 
	C533.812561,570.800842 532.552917,567.553467 530.231384,569.300110 
	C524.305542,573.758545 514.944519,574.239380 513.193970,583.726135 
	C512.984436,584.861694 511.794342,586.055542 510.745178,586.745239 
	C508.793762,588.028076 508.326813,589.721313 508.410339,591.858154 
	C508.695618,599.160828 508.921661,606.465698 509.506927,614.544739 
M540.887390,514.926880 
	C538.023621,514.566711 534.986023,513.025696 532.489929,515.745728 
	C525.513123,523.348511 525.537415,523.369934 531.613037,531.683655 
	C532.396790,532.756104 533.184082,533.826416 533.947266,534.913513 
	C535.408997,536.995728 537.011475,537.397644 539.466064,536.202576 
	C546.861694,532.601868 554.263489,532.901428 561.324768,537.177917 
	C563.439087,538.458435 564.819458,538.486145 566.292664,536.339905 
	C568.734985,532.781799 571.466492,529.421814 573.898193,525.856934 
	C576.064270,522.681396 574.974854,519.889709 571.268066,519.320679 
	C561.442871,517.812073 551.588745,516.492432 540.887390,514.926880 
M537.427551,370.302521 
	C537.330566,372.792542 539.386658,373.112579 541.017822,373.784332 
	C544.549255,375.238586 548.048767,376.812500 551.675964,377.981995 
	C556.849548,379.650055 562.127747,384.493134 566.908752,382.811096 
	C571.640503,381.146393 573.415039,374.401642 576.557495,369.935760 
	C577.788025,368.186890 579.456970,366.319214 577.117798,364.287720 
	C574.398560,361.926239 574.402100,356.411774 568.561401,357.586670 
	C561.255737,359.056274 553.864319,360.437378 546.449097,360.918396 
	C540.479858,361.305603 537.741760,363.813812 537.427551,370.302521 
M578.196289,392.368988 
	C577.102051,391.967987 575.920227,391.717346 574.928772,391.139893 
	C570.666260,388.657379 567.745361,389.482819 565.316650,393.990631 
	C562.876648,398.519531 559.845276,402.747742 556.874512,406.968018 
	C553.484131,411.784424 558.838745,413.598358 560.140503,416.742859 
	C561.359680,419.687988 563.838379,418.115936 565.712585,417.274017 
	C575.586243,412.838257 585.424744,408.323578 595.251221,403.783905 
	C596.521851,403.196930 598.220154,402.839813 598.076416,400.294861 
	C591.812317,397.789642 585.365540,395.211365 578.196289,392.368988 
M450.385193,484.435028 
	C447.121246,483.234711 443.740601,482.273346 440.632111,480.754822 
	C438.349182,479.639587 436.471863,479.071777 435.332397,481.771637 
	C434.073456,484.754608 429.170471,486.861389 432.908691,491.171356 
	C435.997375,494.732391 438.373718,498.691803 439.217133,503.409576 
	C439.474274,504.847961 440.066620,506.116150 441.544220,506.277649 
	C446.499298,506.819214 451.708954,507.573303 456.278107,505.529236 
	C459.195038,504.224335 461.757629,501.545685 461.738403,497.390625 
	C461.690155,486.945648 461.279388,486.300568 450.385193,484.435028 
M567.784119,309.666504 
	C568.876892,310.956543 569.978149,312.430359 571.878357,311.019562 
	C572.912720,310.251587 573.033386,309.012421 572.624207,307.840088 
	C572.158691,306.506256 571.245361,305.405151 569.747070,305.499664 
	C567.571594,305.636932 567.077881,307.115509 567.784119,309.666504 
M480.366821,300.087036 
	C478.618500,298.739929 477.247131,299.117432 476.578552,301.162415 
	C476.230927,302.225800 476.980682,303.209656 478.034393,303.396515 
	C480.059204,303.755615 480.607178,302.432495 480.366821,300.087036 
z"/>
<path fill="#000000" opacity="1.000000" stroke="none" 
	d="
M683.972778,635.205078 
	C682.329956,625.820251 680.934387,616.805969 679.562927,607.788147 
	C678.677124,601.964111 671.911377,598.713562 666.751099,601.727295 
	C664.556458,603.008972 664.785339,605.486023 664.485168,607.532410 
	C663.327942,615.420593 662.184998,623.318787 661.388916,631.248596 
	C661.013733,634.985596 659.601562,636.741455 655.762817,636.341370 
	C652.830017,636.035645 649.802368,636.845093 646.630066,635.616089 
	C646.253723,628.927673 648.024719,622.480408 648.972168,615.992126 
	C652.714233,590.367615 656.818298,564.796021 660.557312,539.171021 
	C661.100891,535.445618 662.417053,534.031555 666.167480,533.920471 
	C680.037720,533.509827 680.174683,533.388916 682.585449,546.905090 
	C687.686890,575.505554 692.628723,604.134460 697.625305,632.753540 
	C697.764954,633.553528 697.783386,634.374695 697.914429,635.793335 
	C693.222229,636.487366 688.750000,636.893372 683.972778,635.205078 
M671.373291,557.418457 
	C670.165833,565.966614 669.058044,574.530640 667.692993,583.053589 
	C667.257751,585.770935 668.116760,586.879700 670.699951,586.773804 
	C672.880432,586.684387 676.029114,587.500549 675.649963,583.752441 
	C674.741882,574.775208 673.878296,565.775269 671.373291,557.418457 
z"/>
<path fill="#000000" opacity="1.000000" stroke="none" 
	d="
M685.006104,297.919861 
	C690.091370,302.502167 691.665649,308.113495 691.604187,314.354828 
	C691.581238,316.685059 691.564636,319.017273 691.454712,321.344299 
	C691.345215,323.664673 693.169434,327.079620 689.977905,327.917450 
	C686.211243,328.906250 682.009644,328.979218 678.174927,327.665985 
	C676.664124,327.148590 676.933716,325.103973 676.916138,323.616943 
	C676.874817,320.119629 676.905701,316.621216 676.841309,313.124451 
	C676.784302,310.032806 675.189026,307.800934 672.137695,307.693481 
	C669.116333,307.587128 667.002502,309.723755 666.927856,312.711670 
	C666.764160,319.269379 666.144043,325.698212 671.038635,331.580414 
	C677.732605,339.625122 683.410522,348.511322 689.620239,356.966095 
	C691.083435,358.958160 691.691040,360.942017 691.585693,363.434387 
	C691.347046,369.079346 691.786011,374.769958 691.287903,380.383301 
	C690.381042,390.603180 682.448975,397.377441 672.031921,397.376617 
	C661.469482,397.375763 653.981201,390.748322 652.613892,380.489288 
	C651.994080,375.838379 652.022766,371.201477 651.991577,366.542450 
	C651.970398,363.384796 653.440491,361.943359 656.536316,362.005371 
	C657.368286,362.022034 658.201355,361.977295 659.034058,361.966095 
	C666.828552,361.861481 667.267517,362.345917 666.804626,370.066406 
	C666.645569,372.719147 666.278381,375.440125 666.681458,378.024628 
	C667.146362,381.005585 669.031067,383.491333 672.389038,383.203827 
	C675.461487,382.940735 676.696838,380.596161 676.892395,377.538300 
	C677.390503,369.748138 676.996826,362.483795 671.082458,356.205505 
	C666.894836,351.760254 664.316711,345.782349 660.068909,341.413544 
	C651.413208,332.511200 650.896118,322.078949 652.576965,310.837311 
	C654.043579,301.028931 659.362671,295.022980 668.941772,293.214935 
	C674.841248,292.101410 680.091431,293.966858 685.006104,297.919861 
z"/>
<path fill="#000000" opacity="1.000000" stroke="none" 
	d="
M667.268921,474.000000 
	C667.279724,481.326508 667.323547,488.153168 667.287354,494.979431 
	C667.269897,498.258728 667.903992,501.378113 671.772949,501.483185 
	C675.473083,501.583710 676.596741,498.717346 676.950623,495.381531 
	C677.215210,492.887756 675.595276,489.345612 678.668701,488.175720 
	C682.031860,486.895569 685.890564,487.550781 689.531006,487.931458 
	C690.443359,488.026917 690.818909,488.793762 691.126892,489.625000 
	C694.362000,498.355133 688.973877,510.938751 680.368042,514.690125 
	C670.502136,518.990845 659.398010,515.171753 654.708313,505.899414 
	C653.249084,503.014313 652.631653,500.012054 652.641296,496.762482 
	C652.703247,475.950104 652.643494,455.137421 652.686218,434.324951 
	C652.710388,422.547913 661.527222,414.153137 673.109802,414.748505 
	C684.552185,415.336639 692.361023,424.782196 691.346191,436.539642 
	C691.104614,439.339020 689.913452,440.381927 687.282532,440.285400 
	C685.619812,440.224426 683.942932,440.158417 682.290161,440.301117 
	C678.617737,440.618103 676.609009,439.439087 676.799011,435.335541 
	C676.946594,432.148865 675.425232,429.442383 671.990356,429.610504 
	C668.386658,429.786865 667.241699,432.601532 667.257446,436.037445 
	C667.314819,448.524689 667.273315,461.012451 667.268921,474.000000 
z"/>
<path fill="#000000" opacity="1.000000" stroke="none" 
	d="
M462.023499,697.227661 
	C446.647522,694.902710 431.702972,692.679321 416.787323,690.276733 
	C409.182068,689.051575 405.352478,679.797852 409.516785,673.266174 
	C410.832520,671.202454 412.552002,671.200073 414.703003,671.510803 
	C429.984375,673.717834 445.284027,675.797791 460.571930,677.960388 
	C473.883087,679.843323 487.175140,681.864624 500.497131,683.665955 
	C509.484924,684.881348 513.158630,691.052368 509.783447,699.610535 
	C508.594299,702.625610 506.521423,703.266968 503.417938,702.819763 
	C489.783447,700.854858 476.119904,699.091553 462.023499,697.227661 
z"/>
<path fill="#000000" opacity="1.000000" stroke="none" 
	d="
M409.389374,696.708740 
	C410.987030,694.065247 413.210815,694.273743 415.370941,694.587158 
	C444.813812,698.859375 474.246643,703.201538 503.700043,707.399353 
	C507.087372,707.882141 509.634308,709.117981 509.997742,712.596985 
	C510.438446,716.815186 511.510895,721.287720 508.174408,724.993042 
	C507.038635,726.254395 505.569763,726.110229 504.008453,725.920105 
	C474.800049,722.363953 445.706848,718.010315 416.655090,713.367493 
	C410.078857,712.316467 407.088776,708.109924 408.190826,701.430542 
	C408.433746,699.958130 408.858948,698.515808 409.389374,696.708740 
z"/>
<path fill="#000000" opacity="1.000000" stroke="none" 
	d="
M483.342468,727.613403 
	C490.679016,728.647888 497.568481,729.712708 504.477875,730.626709 
	C508.085022,731.103760 509.863800,733.431824 510.111786,736.611389 
	C510.426025,740.640686 511.486603,745.026306 507.869537,748.343750 
	C506.817780,749.308411 505.423279,749.179260 504.065674,749.013000 
	C474.089417,745.341736 444.245209,740.750488 414.378693,736.303589 
	C409.432648,735.567139 407.716766,729.870056 408.162354,724.345215 
	C408.615906,718.721680 410.595551,717.059204 415.884186,717.806396 
	C438.238098,720.964783 460.566132,724.306519 483.342468,727.613403 
z"/>
<path fill="#000000" opacity="1.000000" stroke="none" 
	d="
M679.338379,717.000122 
	C679.335266,728.483032 679.226196,739.467468 679.387939,750.447937 
	C679.442017,754.116699 678.158386,755.362000 674.477783,755.384094 
	C664.730164,755.442688 664.734619,755.589661 664.735596,745.744324 
	C664.738403,717.288635 664.714233,688.832886 664.786255,660.377380 
	C664.791748,658.219177 663.642334,655.005310 666.514954,654.228760 
	C670.304138,653.204407 674.503784,652.907043 678.234863,654.512817 
	C680.044678,655.291687 679.311951,657.823242 679.315674,659.588745 
	C679.355652,678.559082 679.339111,697.529602 679.338379,717.000122 
z"/>
<path fill="#000000" opacity="1.000000" stroke="none" 
	d="
M458.667725,748.158142 
	C468.816040,749.421997 478.543579,750.497498 488.247589,751.754333 
	C493.403290,752.422058 494.795288,754.503723 493.972412,759.599670 
	C493.760834,760.909668 493.402344,762.211975 493.344635,763.528015 
	C493.147949,768.009399 490.668823,769.787109 486.456207,769.323853 
	C476.393951,768.217102 466.339142,767.040222 456.288055,765.835449 
	C446.731232,764.689880 437.194946,763.360962 427.625580,762.337585 
	C423.236053,761.868164 421.387939,759.648865 421.738617,755.428650 
	C421.889191,753.616760 422.490875,751.832520 422.548737,750.024841 
	C422.700317,745.287781 425.421234,744.100647 429.554047,744.600342 
	C439.114166,745.756165 448.676025,746.897766 458.667725,748.158142 
z"/>
</svg>