<?xml version="1.0" standalone="no"?>
<!DOCTYPE svg PUBLIC "-//W3C//DTD SVG 20010904//EN"
 "http://www.w3.org/TR/2001/REC-SVG-20010904/DTD/svg10.dtd">
<svg version="1.0" xmlns="http://www.w3.org/2000/svg"
 width="2500.000000pt" height="2500.000000pt" viewBox="0 0 2500.000000 2500.000000"
 preserveAspectRatio="xMidYMid meet">
<metadata>
Created by potrace 1.16, written by Peter Selinger 2001-2019
</metadata>
<g transform="translate(0.000000,2500.000000) scale(0.100000,-0.100000)"
fill="#000000" stroke="none">
<path d="M11535 18990 c-51 -26 -76 -61 -83 -115 -8 -79 34 -150 103 -172 30
-10 30 -11 37 -99 3 -49 11 -226 17 -394 7 -168 14 -317 17 -332 4 -23 1 -27
-29 -37 -35 -12 -86 -59 -106 -99 -16 -30 -16 -116 0 -154 12 -29 11 -31 -27
-65 -21 -20 -84 -77 -139 -128 -55 -51 -115 -105 -132 -120 -36 -29 -41 -46
-19 -64 10 -8 20 -5 42 15 16 15 74 68 129 119 55 50 121 110 146 133 l46 42
48 -21 c36 -16 60 -20 95 -16 l46 6 37 -72 c20 -40 62 -119 93 -177 30 -58 83
-157 116 -220 34 -63 73 -137 88 -165 15 -27 39 -73 55 -102 24 -46 30 -50 46
-40 11 7 19 15 19 18 0 3 -89 175 -199 381 -109 207 -201 383 -204 391 -3 9 1
21 9 28 25 21 54 86 54 122 0 42 -9 38 240 107 102 28 193 53 203 56 18 6 22
21 9 41 -6 10 -62 -3 -233 -51 l-224 -63 -38 43 c-24 27 -53 48 -78 55 -48 15
-45 -4 -59 364 -6 160 -14 336 -17 392 l-6 102 25 6 c14 4 40 22 59 41 28 29
33 42 37 94 4 52 1 66 -21 99 -45 68 -126 89 -202 51z"/>
<path d="M9266 18402 c-16 -2 -46 -21 -72 -48 -42 -41 -44 -46 -44 -102 0 -75
27 -118 93 -150 l47 -22 0 -68 c0 -37 5 -159 10 -272 5 -113 14 -315 20 -450
5 -135 15 -339 20 -455 6 -115 15 -320 20 -455 5 -135 13 -295 16 -356 l7
-111 -26 -5 c-27 -5 -12 -27 -367 515 -57 86 -106 157 -110 157 -3 0 -14 -6
-23 -12 -15 -12 0 -38 148 -263 92 -137 193 -292 227 -344 l60 -93 -23 -24
-24 -24 -285 106 c-157 58 -377 139 -490 180 -113 41 -221 81 -240 89 -19 8
-81 30 -136 50 l-102 36 -5 46 c-17 150 -199 194 -291 70 -30 -41 -28 -123 4
-169 34 -50 69 -68 132 -68 55 0 90 16 117 53 17 24 20 24 281 -73 118 -43
319 -117 445 -163 127 -47 302 -111 390 -144 l160 -58 6 -51 c4 -27 14 -64 23
-81 18 -35 67 -77 105 -88 l24 -7 -8 -147 c-4 -80 -10 -226 -14 -324 l-6 -177
26 0 26 0 7 203 c13 388 17 447 35 447 9 0 33 9 54 20 21 11 43 17 50 13 11
-6 155 -121 167 -133 3 -3 28 -23 55 -45 28 -22 59 -48 70 -57 11 -9 90 -73
174 -142 147 -119 156 -125 173 -109 15 13 16 19 6 29 -13 12 -430 352 -508
414 -25 19 -60 49 -78 65 -33 30 -34 32 -22 72 21 68 6 126 -44 178 -26 27
-55 47 -74 51 -18 4 -34 10 -37 14 -2 4 -11 166 -19 361 -22 517 -34 787 -46
1029 -13 274 -30 683 -30 737 0 38 3 44 41 65 42 23 79 79 79 118 0 11 3 20 8
20 13 0 546 90 548 93 2 2 1 13 -3 25 -4 19 -11 22 -32 18 -157 -32 -526 -86
-529 -77 -7 22 -45 62 -70 75 -33 16 -78 23 -116 18z"/>
<path d="M10465 17958 c3 -18 11 -96 20 -173 33 -302 34 -305 62 -305 23 0 24
3 19 38 -3 20 -11 84 -17 142 -35 345 -31 325 -61 328 -25 3 -27 1 -23 -30z"/>
<path d="M13276 17944 c-4 -15 -6 -27 -4 -28 5 -3 104 -75 248 -182 74 -56
154 -113 178 -129 31 -20 41 -33 36 -44 -13 -33 -16 -100 -5 -133 15 -45 10
-55 -47 -100 -26 -21 -58 -48 -72 -60 -14 -13 -124 -109 -245 -213 -235 -203
-251 -217 -305 -264 -19 -17 -65 -57 -102 -89 -62 -53 -66 -58 -51 -74 9 -10
19 -18 22 -18 3 0 27 20 52 43 50 46 72 65 169 147 36 30 67 57 70 60 3 3 73
64 155 135 83 71 152 132 155 135 3 3 34 30 70 60 36 30 82 70 102 89 69 63
71 63 120 41 79 -36 156 -21 214 42 42 45 58 89 51 143 -14 126 -151 202 -262
145 -22 -11 -47 -20 -57 -20 -15 0 -83 47 -393 275 -96 70 -92 69 -99 39z"/>
<path d="M16280 17849 c-108 -21 -238 -116 -298 -218 -58 -100 -64 -135 -69
-411 l-4 -255 305 -420 305 -420 1 -180 c0 -152 -3 -185 -18 -214 -51 -102
-182 -105 -239 -5 -21 37 -23 50 -23 242 l0 202 -166 0 -167 0 6 -232 c7 -298
22 -352 135 -466 98 -100 199 -142 336 -142 136 0 226 38 323 136 73 73 117
156 132 254 6 36 11 166 11 290 l-1 225 -304 420 -305 420 0 170 c0 187 8 218
63 259 43 31 126 29 162 -4 50 -45 55 -73 55 -285 l0 -195 166 0 166 0 -5 233
c-5 248 -12 287 -63 374 -14 24 -51 69 -82 100 -110 108 -264 153 -422 122z"/>
<path d="M13785 16355 c-82 -13 -179 -29 -215 -34 -36 -6 -123 -20 -195 -31
-295 -45 -275 -40 -275 -68 0 -23 2 -24 48 -18 62 9 284 43 397 61 50 8 133
21 185 29 253 39 240 36 240 62 0 29 8 29 -185 -1z"/>
<path d="M13994 15867 c-81 -122 -151 -226 -155 -231 -7 -8 -34 1 -209 69 -52
20 -147 57 -210 82 -63 25 -171 67 -239 94 -94 37 -127 46 -133 37 -20 -32 -7
-45 85 -81 50 -20 155 -61 232 -91 350 -136 430 -168 432 -170 1 -1 -78 -123
-176 -271 -156 -236 -177 -272 -163 -282 33 -26 19 -44 297 380 53 81 101 147
107 147 9 0 87 -30 353 -135 179 -71 338 -132 363 -140 18 -5 22 -14 22 -46
l0 -40 -82 -38 c-46 -21 -105 -48 -133 -61 -47 -21 -118 -54 -230 -105 -286
-133 -469 -215 -476 -215 -14 0 -11 -50 4 -56 7 -2 89 31 182 74 94 43 197 91
230 106 33 15 166 75 295 135 l235 108 35 -29 c19 -15 40 -28 47 -28 20 0 20
10 -28 -547 -6 -72 -8 -136 -4 -142 3 -6 16 -11 28 -11 22 0 23 4 41 238 9
130 22 278 27 329 5 51 9 98 9 105 0 7 20 21 43 31 101 41 133 165 65 252 -54
70 -171 74 -240 8 l-26 -25 -129 50 c-70 28 -171 67 -223 87 -186 72 -375 147
-378 149 -1 2 38 63 87 137 49 74 116 175 149 226 l60 92 -23 15 -24 16 -147
-223z"/>
<path d="M10794 16062 c-8 -5 6 -71 44 -213 54 -198 57 -205 79 -201 13 2 23
8 23 13 0 4 -20 83 -45 176 -25 92 -48 181 -53 198 -8 30 -28 41 -48 27z"/>
<path d="M11008 15263 c-10 -2 -18 -9 -18 -14 0 -5 -5 -9 -10 -9 -6 0 -29 -12
-53 -27 -23 -15 -59 -36 -79 -46 -37 -18 -38 -21 -38 -71 0 -57 2 -55 -162
-143 -27 -14 -28 -18 -28 -87 l0 -72 -36 -20 c-20 -10 -53 -28 -74 -39 -75
-40 -70 -19 -70 -315 0 -298 -3 -283 73 -315 20 -8 37 -20 37 -25 0 -6 7 -10
15 -10 9 0 27 -11 40 -25 21 -20 25 -34 25 -87 0 -69 -5 -63 83 -106 26 -13
47 -27 47 -32 0 -5 11 -12 25 -16 23 -6 25 -11 25 -60 0 -54 0 -54 45 -77 24
-12 72 -40 106 -61 60 -38 63 -39 88 -23 14 9 41 24 59 32 17 8 32 19 32 24 0
5 11 11 23 15 13 3 36 15 50 27 l27 20 0 719 0 719 -26 20 c-14 11 -35 23 -46
27 -20 6 -74 39 -113 69 -10 8 -22 14 -25 14 -3 -1 -13 -3 -22 -6z m97 -88
c102 -61 95 -42 95 -261 0 -162 -3 -195 -16 -208 -8 -9 -21 -16 -27 -16 -7 0
-32 -14 -57 -31 -39 -26 -51 -30 -87 -24 -54 8 -80 -6 -92 -52 -11 -39 -3 -53
47 -73 35 -15 76 8 82 45 4 23 17 36 64 62 33 19 65 31 73 29 10 -4 13 -55 13
-245 0 -145 -4 -242 -10 -246 -5 -3 -39 11 -75 32 -64 36 -65 38 -65 79 0 27
6 46 19 58 21 19 34 56 20 56 -4 0 -6 7 -2 16 17 45 -87 72 -111 29 -6 -11
-13 -22 -16 -25 -15 -15 -7 -41 17 -60 25 -20 27 -26 25 -81 -3 -48 0 -59 12
-59 9 0 16 -4 16 -10 0 -5 15 -17 33 -26 80 -39 122 -66 129 -82 4 -9 7 -94 7
-189 l1 -172 -29 -20 c-16 -12 -32 -21 -36 -21 -4 0 -28 -14 -52 -31 -42 -28
-48 -29 -77 -18 -17 7 -47 23 -66 36 -19 13 -40 23 -47 23 -23 0 -33 39 -33
127 0 79 3 93 25 123 31 42 31 57 3 87 -26 27 -73 30 -100 6 -26 -24 -25 -93
2 -100 16 -4 20 -14 20 -44 0 -22 -2 -39 -4 -39 -10 0 -66 28 -103 53 -41 26
-43 30 -43 76 l0 49 64 40 c35 22 74 43 85 47 12 3 18 11 15 17 -7 10 61 -25
133 -70 l43 -27 1 -75 c0 -41 2 -83 4 -93 2 -9 -5 -22 -16 -27 -10 -6 -19 -17
-19 -25 0 -8 -4 -15 -8 -15 -16 0 -9 -35 11 -57 24 -27 72 -30 99 -6 26 23 25
89 -2 105 -18 11 -20 24 -20 113 l0 101 -46 32 c-25 18 -43 28 -39 22 3 -5
-14 3 -38 20 -25 16 -50 30 -56 30 -7 0 -11 32 -11 93 0 87 2 95 25 117 25 23
32 50 18 64 -5 4 -8 12 -8 17 0 6 -12 18 -28 27 -23 14 -30 15 -48 4 -17 -11
-20 -11 -14 0 3 7 -3 2 -14 -11 -28 -31 -28 -86 -1 -101 19 -10 20 -19 18
-108 l-3 -96 -70 -43 c-38 -24 -75 -45 -81 -48 -6 -4 -33 9 -60 27 -27 18 -62
40 -79 48 l-30 15 -3 159 c-2 137 0 161 14 177 10 11 23 19 29 19 7 0 24 9 38
20 17 14 40 20 73 20 53 0 94 28 94 63 0 24 -44 67 -69 67 -28 0 -71 -39 -71
-64 0 -15 -13 -31 -41 -49 -61 -40 -69 -37 -69 31 l0 57 76 48 c41 26 80 47
86 47 10 0 97 -46 142 -76 24 -15 27 -23 24 -63 -3 -42 -6 -48 -43 -66 -21
-11 -45 -25 -52 -32 -7 -6 -31 -19 -53 -30 l-39 -18 -1 -86 c0 -73 -3 -89 -20
-104 -46 -42 -2 -133 57 -119 38 9 43 13 43 30 0 8 4 13 9 10 19 -12 -9 70
-28 83 -18 11 -21 24 -21 81 l0 68 66 41 c36 22 69 41 73 41 5 0 20 9 35 21
22 17 26 28 26 73 0 50 1 53 41 76 22 14 46 30 53 35 6 6 30 19 51 30 l40 20
3 107 c2 97 5 107 23 113 17 6 20 14 17 53 -3 39 -7 49 -29 59 -35 17 -85 0
-93 -31 -7 -29 8 -82 23 -78 7 1 10 -2 7 -7 -4 -5 -3 -12 1 -14 5 -3 6 -44 3
-93 l-5 -87 -40 -24 c-22 -13 -51 -29 -65 -35 -14 -7 -32 -18 -41 -25 -14 -12
-25 -8 -77 27 -34 22 -65 40 -70 40 -25 0 -43 39 -40 86 3 42 7 50 33 64 17 8
32 18 33 23 3 6 67 37 78 37 2 0 4 -17 4 -38 0 -26 -7 -45 -20 -57 -42 -38
-14 -105 44 -105 37 1 76 30 76 58 0 10 -11 31 -25 46 -23 25 -25 34 -25 127
l0 99 58 38 c98 64 108 65 187 17z"/>
<path d="M11500 15253 c-32 -23 -75 -47 -127 -72 -23 -11 -46 -29 -52 -40 -8
-13 -11 -244 -11 -729 0 -663 1 -710 18 -724 16 -15 59 -39 130 -73 17 -8 32
-19 32 -24 0 -5 10 -11 22 -14 21 -6 33 -1 113 48 22 14 57 32 78 41 36 17 37
18 37 73 0 52 2 58 28 69 36 17 91 47 124 69 25 16 28 24 28 79 0 82 7 89 136
152 23 11 45 25 48 31 12 18 7 540 -5 559 -6 9 -27 25 -47 35 -21 9 -55 28
-77 40 -40 23 -40 23 -45 96 l-5 72 -65 40 c-36 21 -77 45 -92 51 -25 11 -28
17 -28 63 0 50 0 50 -51 80 -66 39 -77 45 -120 73 -43 26 -39 26 -69 5z m102
-75 c20 -12 50 -31 67 -40 l31 -17 0 -104 c0 -92 -2 -105 -18 -109 -10 -3 -23
-21 -29 -41 -10 -32 -8 -38 11 -56 25 -23 85 -28 104 -9 19 19 14 73 -8 93
-13 12 -20 31 -20 57 0 43 2 44 50 18 19 -11 50 -26 68 -35 30 -14 32 -18 32
-69 0 -51 -2 -56 -37 -83 -21 -16 -53 -35 -71 -43 -19 -7 -40 -19 -48 -27 -12
-12 -18 -12 -43 6 -16 12 -31 21 -34 21 -3 0 -28 14 -56 31 l-51 32 0 91 c0
78 3 93 19 103 39 25 30 96 -15 113 -44 17 -78 -6 -85 -59 -5 -37 -3 -45 18
-58 22 -14 23 -21 23 -119 l0 -103 33 -17 c17 -9 34 -20 37 -23 3 -4 25 -15
50 -26 66 -28 69 -31 72 -98 l3 -62 45 -23 c25 -12 63 -33 85 -45 l40 -22 -4
-80 c-2 -47 -9 -88 -17 -99 -21 -30 -17 -64 11 -92 19 -19 31 -23 52 -18 37 9
43 15 49 55 5 28 1 41 -18 65 -21 25 -25 39 -25 105 0 42 -3 81 -7 87 -4 6
-26 21 -49 32 -117 56 -122 61 -122 114 0 47 1 48 50 77 104 61 114 65 138 49
12 -8 36 -21 52 -30 81 -43 85 -48 85 -111 0 -45 -3 -59 -14 -59 -8 0 -18 5
-22 11 -3 6 -22 17 -40 25 -23 10 -34 21 -34 35 0 50 -44 78 -93 60 -27 -10
-43 -56 -33 -88 7 -23 63 -56 68 -41 6 17 69 14 82 -4 6 -8 21 -18 32 -22 51
-16 55 -32 52 -201 l-3 -158 -70 -43 c-38 -24 -75 -46 -82 -50 -7 -3 -29 7
-49 23 -20 15 -55 37 -78 48 l-41 20 -3 88 c-2 76 0 90 18 109 23 25 27 84 7
108 -33 42 -122 4 -122 -52 -1 -15 1 -25 3 -23 2 2 15 -9 29 -25 22 -26 24
-36 21 -117 l-3 -88 -50 -27 c-27 -15 -69 -36 -92 -48 l-43 -22 0 -103 c0 -96
-1 -104 -23 -118 -19 -12 -22 -22 -19 -55 2 -22 12 -48 22 -57 43 -39 120 13
106 70 -4 15 -16 29 -26 32 -18 5 -20 14 -20 102 l0 96 81 48 c45 26 86 47 91
47 5 0 26 -11 46 -25 20 -14 41 -25 46 -25 5 0 24 -11 43 -26 30 -23 33 -29
33 -79 0 -52 -2 -56 -32 -70 -18 -9 -49 -24 -68 -35 -48 -26 -50 -25 -50 18 0
26 6 41 20 50 25 15 27 73 4 97 -24 24 -85 16 -100 -12 -6 -13 -14 -20 -17
-17 -11 12 11 -55 26 -76 7 -11 17 -17 20 -13 4 3 7 -38 7 -92 0 -78 -4 -102
-17 -117 -9 -10 -20 -18 -26 -18 -5 0 -35 -16 -68 -36 -57 -36 -64 -37 -104
-12 -11 7 -43 28 -72 45 l-53 33 0 189 0 190 43 20 c23 11 51 26 62 33 11 7
35 22 52 33 30 18 33 24 33 72 0 42 5 57 25 77 30 31 32 55 4 90 -30 38 -85
37 -102 -1 -6 -16 -16 -32 -22 -36 -7 -6 -6 -10 3 -14 6 -2 12 -10 12 -17 0
-7 9 -22 21 -34 14 -16 19 -33 17 -59 -3 -33 -9 -41 -63 -74 -33 -21 -66 -38
-72 -38 -10 -1 -13 55 -13 249 0 214 2 250 15 250 27 0 125 -70 125 -89 0 -27
36 -54 71 -54 35 0 55 17 64 55 5 21 1 33 -20 54 -23 22 -32 25 -65 20 -36 -6
-90 8 -90 23 0 4 -22 15 -50 26 l-50 19 0 208 0 207 29 20 c16 12 33 21 38 21
5 0 24 11 43 25 42 30 79 28 132 -7z"/>
<path d="M8352 15088 c-7 -7 -12 -17 -12 -23 0 -6 72 -64 160 -130 88 -66 160
-123 160 -127 0 -4 5 -8 11 -8 6 0 57 -34 112 -76 93 -69 102 -74 114 -58 7
10 12 21 11 25 -2 4 -44 38 -94 76 -50 37 -118 89 -152 116 -33 26 -63 47 -67
47 -5 0 -110 77 -221 161 -6 5 -16 3 -22 -3z"/>
<path d="M7751 14872 c-5 -26 -26 -139 -46 -252 -20 -113 -43 -237 -51 -277
-7 -40 -14 -81 -14 -91 0 -15 -9 -21 -39 -26 -84 -13 -147 -114 -123 -195 16
-52 78 -107 130 -116 79 -13 161 46 179 127 6 29 11 31 128 48 39 5 115 16
170 25 55 9 143 22 195 30 52 7 145 21 205 30 203 31 300 45 308 45 10 0 9 38
-2 44 -5 4 -40 2 -78 -4 -37 -6 -115 -17 -173 -26 -224 -34 -290 -43 -425 -63
-77 -12 -183 -28 -235 -35 -73 -11 -96 -12 -99 -3 -2 7 -24 31 -48 55 l-44 43
10 62 c5 34 26 152 46 262 65 361 63 340 36 354 -17 10 -20 6 -30 -37z"/>
<path d="M16311 14880 c-188 -27 -346 -176 -381 -360 -6 -33 -10 -363 -10
-869 0 -891 -1 -876 58 -985 35 -66 119 -149 182 -181 244 -124 527 -30 644
215 30 64 31 68 34 238 l4 172 -160 0 -160 0 -3 -127 c-4 -115 -6 -131 -27
-161 -45 -62 -117 -79 -177 -42 -68 42 -65 2 -65 882 0 774 1 794 20 826 29
47 77 74 122 69 85 -11 128 -77 128 -197 l0 -70 161 0 161 0 -4 133 c-4 115
-7 139 -30 187 -89 193 -285 299 -497 270z"/>
<path d="M8889 13838 c-41 -46 -113 -128 -161 -183 -47 -55 -120 -138 -161
-185 -42 -47 -77 -90 -77 -96 0 -17 30 -39 39 -28 4 5 104 119 221 254 118
135 222 255 233 267 16 19 18 25 7 38 -7 8 -15 15 -19 15 -4 0 -40 -37 -82
-82z"/>
<path d="M12405 13877 c-11 -22 -3 -26 266 -142 l277 -119 5 -62 c3 -41 12
-73 25 -92 l21 -29 -67 -94 c-37 -52 -89 -123 -115 -158 -36 -49 -44 -68 -36
-78 19 -22 35 -15 64 28 14 23 65 92 111 155 80 108 85 113 110 104 34 -13 94
-13 134 1 37 13 41 10 160 -131 30 -35 65 -76 76 -90 74 -86 219 -256 224
-260 3 -3 30 -34 60 -70 30 -36 60 -70 65 -76 6 -6 30 -35 55 -64 25 -30 59
-70 76 -90 36 -41 74 -85 103 -119 24 -28 25 -39 6 -65 -17 -23 -1 -24 -430
39 -176 25 -365 53 -420 61 -55 7 -118 17 -141 20 -37 6 -42 4 -47 -17 -3 -13
-5 -24 -4 -26 2 -1 225 -34 497 -73 272 -39 503 -73 513 -76 9 -3 17 -12 17
-20 0 -8 9 -33 20 -55 l21 -40 -119 -162 c-200 -274 -184 -248 -165 -269 9
-10 17 -17 19 -16 4 5 218 295 234 318 8 12 27 39 43 60 l27 38 63 -5 c57 -5
65 -3 103 25 85 62 93 159 20 240 l-33 37 149 450 c81 248 149 457 151 465 1
10 -6 15 -22 15 -23 0 -32 -23 -175 -456 l-150 -456 -46 -10 c-25 -5 -50 -12
-56 -14 -14 -5 -814 925 -814 946 0 7 4 17 10 20 5 3 14 23 20 44 12 46 -30
33 480 141 409 87 371 76 361 103 -5 12 -15 21 -22 21 -17 -2 -380 -80 -464
-99 -33 -8 -106 -23 -162 -35 -56 -11 -108 -22 -115 -24 -60 -19 -67 -17 -87
21 -34 66 -104 113 -168 113 -38 -1 -102 -31 -135 -64 l-26 -27 -49 22 c-40
18 -466 202 -498 215 -5 2 -15 -6 -20 -19z"/>
<path d="M10574 13357 c-164 -247 -164 -246 -141 -262 24 -17 15 -28 132 155
65 102 72 116 57 128 -22 17 -24 16 -48 -21z"/>
<path d="M11245 13113 c8 -96 25 -262 30 -300 3 -28 -1 -34 -33 -51 -24 -12
-46 -35 -61 -64 l-25 -45 -80 -7 c-45 -3 -150 -6 -233 -6 l-153 0 0 -26 0 -25
231 2 231 2 20 -31 20 -32 -27 -32 c-15 -18 -66 -76 -114 -128 -48 -52 -107
-117 -132 -144 -24 -28 -51 -57 -59 -66 -8 -9 -98 -108 -200 -220 -102 -112
-202 -222 -222 -244 -36 -39 -38 -40 -71 -28 -106 38 -209 -35 -209 -149 0
-60 34 -119 81 -139 17 -7 31 -15 31 -19 0 -7 -22 -242 -45 -476 -8 -88 -20
-209 -25 -270 -6 -60 -14 -150 -19 -200 -6 -49 -13 -124 -16 -165 -3 -41 -8
-87 -11 -102 -5 -24 -2 -28 19 -28 29 0 32 9 47 180 5 63 14 156 20 205 5 50
14 140 20 202 53 564 61 648 63 648 17 0 106 57 120 76 27 37 33 106 13 153
l-16 39 77 85 c43 48 85 93 93 102 22 24 190 208 241 264 24 28 51 57 59 66
24 26 190 209 255 281 40 45 65 65 75 61 8 -3 40 -8 70 -10 70 -4 115 23 148
89 l23 46 232 7 c128 4 236 11 240 15 4 4 5 16 1 26 -7 17 -21 17 -244 10
l-237 -7 -13 31 c-16 39 -60 77 -99 86 -34 7 -35 11 -51 190 -18 218 -18 215
-46 215 -25 0 -26 0 -19 -67z"/>
<path d="M8531 12892 c-10 -18 9 -31 197 -144 l207 -125 -3 -59 c-3 -57 5 -91
30 -125 9 -14 -8 -39 -106 -155 -65 -77 -159 -188 -209 -247 -67 -79 -95 -106
-106 -101 -39 18 -99 15 -139 -5 -102 -52 -118 -177 -33 -254 46 -42 95 -54
146 -37 43 14 27 28 156 -130 51 -63 96 -117 99 -120 3 -3 31 -37 63 -77 77
-95 83 -99 97 -73 9 17 5 27 -27 68 -21 26 -40 49 -43 52 -3 3 -24 27 -45 55
-47 58 -52 65 -144 175 -39 47 -71 92 -70 100 0 8 6 24 14 34 20 26 19 97 -2
140 -15 32 -15 38 -2 53 9 10 56 65 105 123 49 58 136 160 191 226 l102 122
53 -15 c43 -12 62 -13 96 -4 53 15 120 77 128 120 4 18 12 34 18 37 6 2 68 7
138 12 71 5 130 11 133 14 3 3 2 13 -1 23 -7 16 -19 17 -141 12 l-133 -5 -21
41 c-61 118 -181 140 -300 55 -14 -9 -51 10 -215 108 -109 65 -204 120 -211
122 -6 2 -16 -6 -22 -16z"/>
<path d="M12098 12252 c-44 -46 -458 -546 -458 -552 0 -3 8 -10 18 -17 17 -10
29 1 103 90 46 55 89 105 94 111 6 6 55 65 110 131 54 66 121 145 147 176 45
54 47 57 30 73 -17 15 -20 14 -44 -12z"/>
<path d="M12765 12228 c-11 -6 -21 -12 -23 -13 -2 -2 258 -357 279 -379 8 -9
39 10 39 24 0 4 -30 47 -66 96 -36 49 -72 98 -80 109 -23 32 -124 169 -127
171 -1 1 -11 -2 -22 -8z"/>
<path d="M16130 11964 c0 -9 -359 -2390 -366 -2431 l-6 -33 166 0 c91 0 166 1
167 3 0 1 26 193 57 427 l57 425 172 3 c172 2 173 2 178 -20 3 -13 30 -196 60
-408 31 -212 58 -395 60 -407 5 -23 7 -23 170 -23 l165 0 -5 23 c-2 12 -97
553 -210 1202 -113 649 -208 1195 -211 1213 l-6 32 -224 0 c-123 0 -224 -3
-224 -6z m310 -838 c33 -229 60 -423 60 -431 0 -12 -21 -15 -119 -15 -66 0
-122 3 -124 8 -3 4 22 196 54 427 32 231 59 424 59 429 1 45 18 -60 70 -418z"/>
<path d="M12750 11114 c-96 -58 -199 -119 -228 -136 l-53 -30 -24 22 c-48 45
-152 39 -204 -12 l-33 -32 -76 28 c-43 15 -106 39 -142 52 -36 13 -88 32 -116
42 l-52 20 -10 -24 c-12 -25 -15 -24 262 -125 115 -42 116 -43 116 -74 0 -47
40 -115 80 -136 63 -33 60 -11 60 -379 l0 -340 25 0 25 0 0 349 0 349 28 10
c64 22 110 105 97 175 l-6 32 226 135 c125 74 229 138 232 142 5 9 -15 38 -26
38 -3 0 -85 -48 -181 -106z"/>
<path d="M13125 10948 c-16 -35 -44 -97 -63 -138 -19 -41 -54 -118 -77 -170
-24 -52 -57 -126 -75 -165 -35 -77 -52 -114 -130 -285 -29 -63 -68 -148 -87
-189 -18 -40 -32 -75 -31 -76 2 -1 13 -6 25 -9 19 -6 25 0 44 41 12 26 41 90
65 141 24 52 44 95 44 97 0 1 20 45 43 96 60 129 95 206 226 494 83 182 90
201 74 213 -9 6 -20 12 -24 12 -3 0 -19 -28 -34 -62z"/>
<path d="M11025 10817 c-6 -7 -48 -61 -94 -122 -47 -60 -87 -112 -91 -115 -3
-3 -37 -45 -75 -95 -38 -49 -77 -99 -87 -110 -9 -11 -38 -48 -65 -82 -202
-261 -196 -252 -183 -268 7 -8 16 -15 20 -15 5 0 85 98 179 218 93 119 233
298 310 396 128 163 139 180 123 192 -21 16 -24 16 -37 1z"/>
<path d="M11291 10493 c-6 -137 -17 -336 -22 -443 -6 -107 -14 -278 -19 -380
-5 -102 -9 -188 -10 -192 0 -4 -18 -12 -39 -18 -24 -6 -52 -25 -75 -50 -20
-22 -42 -40 -48 -40 -7 0 -83 22 -168 49 -380 119 -362 115 -371 100 -17 -27
-9 -38 34 -49 23 -7 76 -22 117 -35 41 -13 144 -45 228 -71 l152 -48 0 -30 c1
-41 30 -104 65 -138 47 -47 127 -60 192 -33 50 21 72 42 94 90 47 101 0 215
-104 254 -25 10 -25 12 -21 88 13 245 54 1112 54 1156 0 32 -3 37 -23 37 l-23
0 -13 -247z"/>
<path d="M16220 7825 l0 -1225 165 0 165 0 0 1225 0 1225 -165 0 -165 0 0
-1225z"/>
<path d="M10008 8611 c-57 -45 -73 -206 -33 -322 31 -89 -1 -81 755 -194 165
-25 289 -43 410 -60 63 -9 158 -23 210 -31 117 -17 478 -66 660 -89 74 -10
178 -23 230 -30 55 -7 104 -9 117 -4 12 4 32 27 44 51 18 35 22 60 22 143 0
106 -18 172 -59 206 -11 9 -67 22 -139 33 -66 9 -163 23 -215 31 -52 8 -113
16 -135 19 -91 13 -397 57 -485 70 -52 8 -147 22 -210 31 -63 9 -142 20 -175
25 -33 5 -125 18 -205 30 -135 19 -216 30 -460 65 -52 8 -131 19 -175 25 -44
6 -92 13 -106 16 -16 3 -34 -2 -51 -15z"/>
<path d="M10005 8044 c-70 -71 -65 -313 8 -382 21 -20 93 -38 232 -58 22 -3
81 -12 130 -19 272 -43 316 -49 590 -89 55 -9 147 -22 205 -31 269 -40 889
-123 1083 -146 110 -13 120 -9 153 59 26 54 23 223 -4 283 -12 25 -27 51 -34
57 -14 11 -98 26 -318 57 -63 9 -158 22 -210 30 -52 8 -147 21 -210 30 -199
29 -312 45 -410 60 -52 8 -149 21 -215 30 -66 9 -160 22 -210 30 -49 8 -142
21 -205 30 -242 34 -328 47 -416 61 -117 18 -149 18 -169 -2z"/>
<path d="M9997 7473 c-28 -33 -50 -131 -44 -200 14 -143 49 -196 137 -207 30
-4 89 -13 130 -21 41 -7 125 -21 185 -30 61 -9 151 -23 200 -30 50 -8 137 -21
195 -30 58 -8 148 -22 200 -30 52 -8 147 -21 210 -30 63 -8 160 -22 215 -30
170 -25 305 -43 435 -60 69 -9 168 -22 220 -30 151 -21 266 -28 288 -16 54 29
76 239 35 332 -35 77 -30 75 -318 114 -66 9 -160 22 -210 30 -49 8 -142 21
-205 30 -63 9 -158 22 -210 30 -92 14 -210 31 -415 60 -240 34 -326 47 -415
60 -52 7 -147 21 -210 30 -63 9 -156 23 -206 31 -127 20 -197 19 -217 -3z"/>
<path d="M10365 6831 c-41 -18 -53 -45 -69 -158 -23 -159 -22 -169 18 -209 23
-23 43 -34 63 -34 15 0 78 -6 138 -14 108 -15 239 -31 493 -61 70 -9 179 -22
242 -30 63 -8 176 -21 250 -30 74 -9 181 -23 238 -31 158 -22 198 -19 231 14
24 24 29 41 45 159 l18 132 -21 34 c-12 19 -28 37 -35 40 -17 7 -181 29 -376
52 -74 9 -164 20 -200 26 -36 5 -110 14 -165 19 -55 6 -127 14 -160 19 -33 5
-123 17 -200 26 -77 9 -189 22 -250 30 -166 21 -238 26 -260 16z"/>
</g>
</svg>
