<?xml version="1.0" standalone="no"?>
<!DOCTYPE svg PUBLIC "-//W3C//DTD SVG 20010904//EN"
 "http://www.w3.org/TR/2001/REC-SVG-20010904/DTD/svg10.dtd">
<svg version="1.0" xmlns="http://www.w3.org/2000/svg"
 width="300.000000pt" height="300.000000pt" viewBox="0 0 300.000000 300.000000"
 preserveAspectRatio="xMidYMid meet">
<metadata>
Created by potrace 1.10, written by Peter Selinger 2001-2011
</metadata>
<g transform="translate(0.000000,300.000000) scale(0.100000,-0.100000)"
fill="#000000" stroke="none">
<path d="M1366 2294 c-19 -18 -20 -44 -5 -78 15 -33 -5 -86 -32 -86 -23 0 -24
10 -4 36 30 39 14 94 -35 119 -42 22 -55 19 -97 -19 -25 -22 -48 -34 -66 -34
-16 0 -36 -7 -45 -16 -14 -13 -14 -21 -4 -49 17 -46 17 -46 -28 -40 -35 5 -43
2 -75 -30 -20 -20 -35 -45 -35 -58 0 -12 -10 -33 -22 -46 -15 -16 -21 -34 -20
-58 1 -18 -2 -37 -8 -40 -6 -4 -15 -18 -21 -32 -8 -23 -4 -39 27 -103 1 -3 -4
-20 -13 -38 -19 -39 -12 -59 26 -75 26 -11 28 -14 15 -32 -8 -10 -14 -31 -14
-46 0 -36 54 -83 86 -75 33 9 39 -10 10 -29 -43 -29 -42 -59 6 -107 11 -11 17
-26 14 -34 -15 -40 48 -114 99 -114 11 0 15 -11 15 -41 0 -35 6 -47 34 -72 33
-30 33 -31 14 -46 -28 -23 -33 -181 -7 -215 10 -12 21 -35 25 -50 3 -15 18
-33 33 -40 31 -16 160 -31 189 -22 11 4 36 27 55 52 34 43 35 49 35 127 0 52
-5 90 -13 103 -13 20 -11 23 23 45 46 30 60 66 46 118 -14 53 3 93 47 111 55
22 79 54 79 106 0 24 4 44 8 44 12 0 44 59 37 70 -12 19 8 59 41 82 39 27 67
78 57 105 -4 10 -16 30 -27 45 -16 23 -18 33 -10 60 6 18 8 41 6 50 -3 16 -37
35 -54 30 -14 -3 -9 4 22 36 53 56 34 122 -42 151 -20 8 -25 15 -21 31 7 25
-19 56 -53 64 -13 4 -30 19 -38 34 -20 38 -47 61 -83 68 -26 5 -37 0 -73 -32
l-43 -39 6 47 c6 41 4 49 -15 63 -28 19 -33 19 -52 -1z m45 -34 c-11 -37 -12
-102 -2 -114 15 -18 61 -8 61 13 0 31 30 61 60 61 30 0 60 -22 60 -44 0 -17
55 -56 80 -56 16 0 21 -5 18 -22 -2 -13 -10 -23 -19 -23 -8 0 -35 -17 -59 -38
-24 -20 -48 -37 -54 -37 -6 1 10 20 37 43 53 47 57 61 25 87 -21 17 -23 17
-41 -6 -22 -29 -60 -31 -85 -6 -14 14 -24 16 -45 9 -33 -11 -33 -14 -5 -72 16
-33 26 -44 39 -40 26 8 68 -12 80 -39 10 -21 16 -24 48 -19 47 8 71 20 71 39
0 25 49 37 76 19 42 -27 20 -95 -31 -95 -13 0 -30 -10 -38 -24 -15 -23 -15
-24 26 -37 23 -8 50 -12 61 -11 16 3 18 -1 12 -25 -20 -87 -19 -94 3 -109 39
-27 22 -88 -29 -106 -15 -5 -45 -91 -41 -116 1 -7 -11 -26 -28 -41 -26 -24
-29 -33 -25 -63 5 -30 2 -38 -22 -57 -16 -12 -36 -20 -46 -18 -10 3 -18 0 -18
-6 0 -19 -50 -120 -56 -114 -3 3 6 32 21 66 15 33 24 64 21 70 -9 14 -64 -19
-70 -44 -13 -47 -6 -84 17 -96 43 -23 50 -66 17 -99 -28 -28 -64 -25 -89 6
-28 35 -26 51 7 82 37 37 37 97 -1 126 -25 18 -28 19 -45 3 -10 -9 -32 -17
-48 -17 -41 -1 -93 -71 -87 -117 4 -25 11 -32 35 -37 17 -3 34 -3 39 0 5 3 9
37 9 76 0 39 3 68 7 65 3 -4 5 -37 4 -73 -1 -36 2 -71 8 -77 13 -16 -3 -42
-20 -33 -8 4 -30 15 -49 26 -30 16 -37 16 -51 4 -21 -18 -38 -18 -61 3 -25 23
-22 58 7 80 23 16 25 25 27 105 2 54 7 88 14 88 5 0 32 25 58 55 l47 55 -30 0
c-17 0 -31 -5 -31 -12 0 -46 -87 -66 -114 -26 -37 52 -8 108 55 108 48 0 53
17 18 57 -33 39 -44 87 -31 136 10 34 8 37 -24 62 -43 33 -48 32 -51 -6 -2
-23 4 -36 27 -56 39 -33 40 -73 3 -103 -20 -15 -36 -20 -56 -16 -58 12 -105
-88 -54 -116 12 -7 28 -11 35 -10 7 2 21 -3 32 -11 19 -13 19 -14 -8 -27 -69
-35 -91 -80 -53 -114 15 -14 23 -15 45 -5 23 11 30 10 54 -8 52 -39 32 -113
-32 -113 -43 0 -69 28 -64 70 2 27 -3 37 -35 64 l-38 32 40 32 c23 18 41 41
41 51 0 23 -38 40 -73 34 -31 -6 -57 11 -57 37 0 25 35 53 57 46 26 -8 76 44
67 68 -6 15 -15 16 -58 11 -28 -3 -61 -11 -74 -17 -32 -16 -52 4 -30 29 21 23
26 76 10 96 -21 25 -11 69 19 86 24 13 29 13 53 -2 18 -12 26 -26 26 -47 0
-41 48 -75 84 -59 21 10 26 19 26 48 0 20 -4 41 -8 48 -9 15 -137 63 -168 63
-14 0 -24 6 -24 14 0 23 20 29 38 13 9 -8 47 -26 84 -40 l68 -25 -23 39 c-17
30 -28 39 -49 39 -57 0 -81 74 -34 106 22 13 29 14 53 2 31 -14 43 -59 23 -83
-9 -11 -6 -22 15 -52 l27 -38 -6 124 c-4 69 -11 131 -17 138 -15 17 -1 36 24
29 35 -9 74 5 86 30 15 34 65 33 87 -1 15 -23 15 -27 0 -50 -9 -14 -20 -25
-24 -25 -5 0 -7 -12 -4 -27 3 -20 14 -33 38 -44 32 -16 34 -15 55 7 13 13 19
24 14 24 -5 0 -4 5 3 12 14 14 16 104 2 113 -20 12 -11 37 13 33 14 -2 20 -9
18 -18z m84 -186 c17 -11 34 -14 57 -9 30 7 31 6 19 -9 -9 -11 -21 -14 -35
-10 -12 4 -28 8 -36 9 -21 1 -40 14 -40 26 0 13 7 11 35 -7z m153 -63 c-13
-21 -38 -29 -38 -12 0 11 42 43 48 37 2 -2 -3 -13 -10 -25z m-570 -143 c17
-17 15 -45 -3 -51 -16 -7 -20 -3 -29 36 -7 29 10 37 32 15z m80 -274 c-44 -42
-83 -44 -83 -4 0 25 10 29 105 38 8 1 -2 -14 -22 -34z m-2 -160 c37 -28 47
-52 15 -34 -11 5 -38 10 -60 10 -46 0 -52 11 -19 34 28 20 23 21 64 -10z m294
-184 c0 -22 -49 -72 -62 -63 -14 8 -9 46 9 65 22 25 53 24 53 -2z m-122 -47
c-5 -25 -28 -28 -28 -4 0 12 6 21 16 21 9 0 14 -7 12 -17z m-17 -123 l24 -19
-42 -1 c-23 0 -49 3 -58 7 -14 5 -12 8 11 19 39 17 38 17 65 -6z m109 -15 c18
-21 7 -28 -30 -20 -25 6 -29 9 -19 21 15 18 33 18 49 -1z m-50 -53 c106 -16
115 -19 118 -39 4 -28 3 -28 -160 -6 -105 14 -129 20 -134 35 -8 27 4 38 34
32 15 -3 79 -13 142 -22z m-12 -68 c126 -17 132 -19 132 -41 0 -15 -6 -23 -17
-23 -50 1 -265 38 -275 48 -14 14 -2 46 15 39 7 -3 72 -13 145 -23z m15 -70
c111 -16 117 -19 117 -41 0 -13 -6 -23 -12 -23 -51 2 -271 39 -280 48 -20 20
-1 44 29 38 16 -3 81 -13 146 -22z m5 -70 c57 -6 62 -9 62 -30 0 -28 2 -27
-110 -13 -91 11 -106 18 -96 45 5 13 14 15 44 11 20 -3 65 -9 100 -13z"/>
<path d="M1170 2192 c-28 -4 -52 -21 -45 -32 2 -3 5 -61 6 -128 0 -67 5 -122
10 -122 5 0 9 -8 9 -17 1 -10 17 -30 37 -45 l36 -28 29 25 c16 14 34 25 39 25
24 0 2 44 -26 53 -47 15 -75 46 -75 83 0 46 9 63 42 80 25 13 29 19 23 42 -3
15 -11 29 -16 31 -6 1 -18 11 -27 20 -10 10 -27 15 -42 13z m34 -54 c8 -13 5
-22 -14 -43 -13 -14 -27 -25 -32 -25 -10 0 -11 74 -1 84 11 11 35 3 47 -16z
m2 -225 c23 -17 32 -29 25 -36 -15 -15 -37 -2 -54 32 -19 38 -15 38 29 4z"/>
<path d="M1367 2083 c-11 -13 -14 -29 -10 -60 5 -37 2 -46 -23 -71 -38 -37
-35 -74 5 -66 15 3 44 -1 64 -10 42 -17 56 -7 33 26 -20 28 -20 52 0 83 14 22
14 27 -8 66 -28 50 -39 56 -61 32z"/>
<path d="M1618 1948 c-54 -11 -62 -31 -20 -46 15 -5 35 -13 44 -17 11 -4 22 1
32 18 15 22 13 59 -3 56 -3 -1 -27 -6 -53 -11z"/>
<path d="M1547 1883 c-11 -11 -31 -17 -57 -16 -22 1 -40 0 -40 -3 0 -2 12 -22
26 -43 21 -33 25 -49 23 -97 -3 -53 -1 -58 22 -66 34 -14 77 -17 124 -11 33 4
43 10 55 36 8 18 25 36 38 42 17 8 22 18 22 47 0 21 -2 38 -4 38 -2 0 -29 -11
-60 -25 -39 -17 -56 -30 -56 -43 0 -48 -76 -70 -104 -30 -33 47 -7 98 50 98
22 0 34 7 47 29 17 29 17 29 -11 39 -15 5 -34 13 -42 16 -9 4 -23 -1 -33 -11z"/>
<path d="M1642 1831 c-16 -23 -18 -32 -9 -43 10 -11 21 -9 67 14 53 26 54 27
30 36 -62 23 -66 23 -88 -7z"/>
<path d="M1282 1796 c-43 -48 -43 -86 2 -133 23 -24 39 -34 50 -30 14 6 16 21
14 99 -3 108 -15 120 -66 64z m58 -7 c0 -27 -3 -30 -23 -26 -12 4 -29 2 -37
-3 -10 -7 -11 -10 -2 -10 6 0 12 -7 12 -15 0 -8 5 -15 10 -15 14 0 13 13 -2
28 -9 9 -9 12 0 12 7 0 12 -5 12 -11 0 -6 6 -9 14 -6 12 5 15 -6 15 -49 0 -46
-3 -55 -17 -52 -9 2 -16 12 -15 22 0 10 -4 15 -12 12 -16 -6 -37 33 -32 59 8
39 18 54 34 48 11 -4 14 -2 9 5 -9 15 1 32 20 32 9 0 14 -11 14 -31z"/>
<path d="M1366 1821 c-4 -5 3 -7 15 -4 18 5 20 2 17 -23 -2 -20 -8 -29 -20
-28 -22 2 -24 -12 -3 -20 8 -3 15 -1 15 5 0 6 5 7 10 4 6 -4 7 -11 4 -17 -4
-5 -6 -30 -6 -55 1 -40 -1 -45 -18 -40 -11 3 -18 1 -14 -4 9 -15 28 -10 47 11
9 11 13 20 9 20 -5 0 -9 17 -9 38 0 20 2 27 4 15 2 -13 10 -23 16 -23 7 0 6
-4 -3 -10 -8 -5 -10 -10 -4 -10 18 0 34 23 34 50 0 27 -16 50 -34 50 -6 0 -5
-4 2 -9 11 -7 11 -9 0 -14 -10 -3 -15 4 -16 25 -1 17 -5 35 -8 39 -7 12 -31
11 -38 0z"/>
<path d="M968 1787 c-20 -8 -30 -20 -34 -44 -4 -19 -5 -36 -2 -38 2 -2 29 -1
61 2 45 5 58 10 63 26 5 16 -1 27 -22 44 -16 13 -31 22 -34 22 -3 -1 -17 -6
-32 -12z"/>
<path d="M1452 1624 c-18 -18 -46 -35 -62 -39 -32 -7 -40 -31 -18 -53 19 -19
56 -14 63 7 9 30 33 44 68 43 23 -1 37 5 45 18 11 18 8 22 -20 40 -18 11 -35
19 -38 19 -3 -1 -20 -17 -38 -35z"/>
<path d="M1650 1634 c-25 -6 -45 -15 -45 -20 0 -6 21 -34 46 -63 l46 -52 20
54 20 54 -21 19 c-19 17 -26 18 -66 8z m40 -39 c10 -12 10 -19 2 -27 -13 -13
-42 6 -42 28 0 19 24 18 40 -1z"/>
<path d="M1559 1591 c-19 -16 -22 -22 -11 -32 6 -7 12 -21 12 -30 0 -13 12
-19 43 -24 23 -3 51 -9 61 -12 15 -4 12 4 -15 37 -19 23 -41 51 -50 62 -15 19
-15 19 -40 -1z"/>
<path d="M1267 1586 c-3 -8 0 -26 6 -41 10 -20 18 -25 42 -23 24 2 31 8 33 29
2 21 -2 28 -22 33 -13 3 -31 8 -39 12 -8 3 -17 -2 -20 -10z"/>
<path d="M1359 1494 c-29 -15 -87 -84 -106 -124 -6 -14 -15 -55 -18 -92 -8
-83 5 -88 53 -21 24 32 30 49 23 56 -15 15 -14 60 3 82 9 13 25 19 49 18 29
-1 41 5 60 31 29 39 25 66 -11 65 -15 -1 -39 -7 -53 -15z"/>
<path d="M1549 1484 c-7 -9 -6 -19 3 -33 10 -17 19 -20 41 -15 15 3 34 1 41
-5 10 -9 17 -5 31 15 9 14 15 27 13 29 -2 1 -29 7 -61 12 -44 8 -60 7 -68 -3z"/>
<path d="M1436 1435 c-18 -23 -22 -39 -18 -65 5 -40 16 -50 53 -50 42 0 80 22
75 44 -3 11 0 28 5 38 15 27 -12 55 -57 60 -29 3 -38 -1 -58 -27z m74 -40 c0
-12 -7 -29 -16 -36 -14 -11 -18 -10 -30 6 -17 23 -18 52 -1 58 24 8 47 -5 47
-28z"/>
<path d="M1934 2165 c-52 -21 -71 -104 -38 -166 14 -28 14 -32 0 -48 -23 -26
-20 -75 8 -108 l24 -28 -24 -28 c-25 -30 -31 -75 -26 -212 2 -48 7 -64 26 -84
22 -21 23 -26 11 -45 -12 -18 -25 -87 -50 -253 -5 -34 -3 -45 14 -62 12 -12
28 -21 37 -21 12 0 14 -5 8 -17 -5 -10 -10 -77 -12 -148 -3 -121 -1 -133 18
-158 26 -32 43 -34 71 -6 20 20 21 30 17 175 -2 107 0 154 8 154 6 0 19 9 29
20 17 18 16 25 -5 152 -13 73 -29 145 -36 159 -12 24 -11 29 11 49 14 14 25
35 25 50 0 25 -32 70 -49 70 -16 0 -19 51 -4 63 60 49 66 68 32 111 l-20 26
20 29 c22 31 30 124 11 136 -5 3 -10 17 -10 30 0 13 5 27 10 30 15 9 12 78 -5
102 -22 31 -65 43 -101 28z m74 -38 c6 -5 12 -27 12 -48 0 -32 -3 -39 -20 -39
-16 0 -20 7 -20 30 0 20 -5 30 -15 30 -27 0 -17 -50 20 -100 54 -74 45 -160
-17 -160 -33 0 -58 29 -58 67 0 26 4 33 20 33 16 0 20 -7 20 -30 0 -20 5 -30
15 -30 28 0 17 58 -20 107 -25 33 -35 56 -35 83 0 67 48 96 98 57z m-10 -353
c28 -19 30 -64 3 -64 -11 0 -21 9 -25 22 -4 16 -8 20 -16 12 -16 -16 -9 -206
8 -212 7 -2 12 6 12 22 0 19 5 26 20 26 15 0 20 -7 20 -27 0 -54 -54 -81 -92
-46 -15 14 -18 32 -18 134 0 110 1 119 22 133 12 9 27 16 33 16 6 0 21 -7 33
-16z m-8 -337 c0 -2 11 -66 25 -143 30 -167 29 -154 5 -154 -16 0 -21 9 -26
50 -6 44 -9 50 -30 50 -21 0 -24 -5 -24 -34 0 -48 -9 -66 -32 -66 -16 0 -19 5
-15 23 3 12 13 79 23 150 l18 127 28 0 c15 0 28 -1 28 -3z m0 -497 c0 -149 0
-150 -22 -150 -23 0 -23 1 -23 150 0 149 0 150 23 150 22 0 22 -1 22 -150z"/>
<path d="M1961 1364 c0 -12 -4 -36 -7 -53 -5 -24 -3 -31 10 -31 17 0 19 23 6
75 -6 22 -8 24 -9 9z"/>
</g>
</svg>
